<svg width="218" height="31" viewBox="0 0 218 31" fill="none" xmlns="http://www.w3.org/2000/svg">
<path d="M109.508 9.68839C109.639 7.14247 110.552 5.06577 111.978 3.4409V1.2773H110.082C106.247 1.2773 103.004 2.74577 101.117 6.06502H101.004V1.64225H91.1686V28.6046H101.004V17.7172C101.004 13.0945 102.36 9.57543 107.812 9.57543C108.412 9.58412 108.969 9.61019 109.508 9.68839ZM183.988 9.58412C184.805 7.20329 186.127 5.07445 187.849 3.37138V1.26862H185.953C182.118 1.26862 178.875 2.73708 176.979 6.05633H176.875V1.64225H167.031V28.6046H176.875V17.7172C176.875 13.0945 178.231 9.57543 183.692 9.57543L183.988 9.58412ZM129.482 8.57618C127.961 7.78547 125.856 7.26412 124.169 7.26412C123.039 7.26412 121.091 7.73333 121.091 9.10621C121.091 10.9483 124.169 11.209 125.526 11.4784C130.109 12.3733 133.578 14.4761 133.578 19.4637C133.578 26.554 126.926 29.5083 120.491 29.5083C116.543 29.5083 112.656 28.4048 109.299 26.4063L112.865 19.7243C114.865 21.0972 118.213 22.4614 120.647 22.4614C121.891 22.4614 123.726 21.8879 123.726 20.4108C123.726 18.308 120.647 18.1951 117.56 17.413C114.482 16.6223 111.404 15.1539 111.404 10.3227C111.404 3.70157 117.56 0.755956 123.63 0.755956C126.769 0.755956 129.9 1.22517 132.761 2.4851L129.482 8.57618ZM217.354 28.6046H207.519V25.6069H207.414C205.684 28.2831 202.267 29.4909 199.032 29.4909C190.805 29.4909 185.031 22.8177 185.031 15.0843C185.031 7.36839 190.71 0.738577 198.927 0.738577C202.119 0.738577 205.475 1.89423 207.528 4.25768V1.63356H217.363L217.354 28.6046ZM195.188 15.1452C195.188 18.56 197.519 21.1841 201.51 21.1841C205.51 21.1841 207.832 18.56 207.832 15.1452C207.832 11.8346 205.51 9.04539 201.51 9.04539C197.519 9.05408 195.188 11.8346 195.188 15.1452ZM165.483 16.7266H144.77C144.77 20.6106 146.883 22.7134 150.935 22.7134C153.039 22.7134 154.553 22.0357 155.639 20.2457H165.101C163.535 26.6061 157.309 29.4996 150.987 29.4996C141.804 29.4996 134.935 24.4512 134.935 15.1539C134.935 6.16929 141.257 0.755956 150.283 0.755956C159.909 0.755956 165.483 6.54292 165.483 15.736V16.7266ZM156.344 11.209C155.857 8.637 153.422 6.95131 150.779 6.95131C147.909 6.95131 145.544 8.41977 144.935 11.209H156.344ZM59.8723 14.676C59.8636 14.4413 59.8462 14.2154 59.8288 13.9895V13.9808C59.6114 11.4784 58.7766 9.14097 57.3766 7.02082C56.7592 6.09108 56.0374 5.23086 55.2287 4.44884C54.0548 3.31925 52.7069 2.38952 51.1765 1.65963C48.8808 0.564797 46.3416 0.00869232 43.6285 0.00869232C43.3676 0.00869232 43.0893 0.00868808 42.8111 0.0260663C40.9067 0.112958 39.0632 0.469212 37.3327 1.11221C35.5848 1.74652 34.0718 2.57199 32.8283 3.57124C32.5761 3.77109 32.2978 4.01438 32.0022 4.29244L31.7848 4.50097L31.4978 4.81378L31.3587 4.94412L31.2891 5.01363L30.9413 5.37858C30.6891 5.65663 30.4456 5.94337 30.2108 6.2388L30.2021 6.23011C29.7239 6.81228 29.2891 7.40315 28.9673 7.94187C28.7499 8.28944 28.5325 8.637 28.3325 8.99326L25.4977 14.7281L25.3498 15.0148L25.0368 15.6491C24.4107 16.9091 23.7498 18.1603 23.002 19.1943C21.3411 21.0103 19.4628 21.9053 17.054 21.9053C16.8888 21.9053 16.7149 21.8966 16.5323 21.8879C15.0801 21.8271 13.8279 21.4882 12.7235 20.8365C12.6105 20.767 12.4887 20.6975 12.3757 20.6193C11.4713 20.0198 10.7843 19.2464 10.2626 18.2906C9.67996 17.2045 9.41909 16.0836 9.45387 14.9106C9.45387 14.8758 9.45387 14.8497 9.45387 14.8237C9.53213 12.9468 10.2452 11.487 11.6887 10.2271C12.0365 9.93168 12.4018 9.67101 12.7931 9.43641C12.8452 9.40165 12.8974 9.37558 12.9583 9.34951C14.0279 8.76734 15.254 8.47191 16.654 8.47191L17.0888 8.4806C19.3149 8.56749 21.028 9.26262 22.3933 10.6094L26.6803 2.91955C25.6542 2.23311 24.4977 1.64225 23.2194 1.16435C23.1672 1.14697 23.1237 1.12959 23.0715 1.11221C22.915 1.06007 22.7672 0.999253 22.6107 0.947118C21.2541 0.495283 19.828 0.217228 18.3671 0.0868914C18.3323 0.0782022 18.2888 0.0782012 18.2541 0.069512C18.028 0.0521338 17.8019 0.0260685 17.5758 0.0173793C17.3323 0.0086902 17.0888 0 16.8453 0H16.7062C14.0105 0.00868914 11.5061 0.564794 9.21039 1.65094C6.64512 2.88479 4.56681 4.68345 3.01895 7.00345C1.47979 9.32345 0.644992 11.8954 0.523251 14.6586C0.514555 14.8932 0.505859 15.1278 0.505859 15.3624C0.505859 19.2291 1.91458 22.6265 4.71464 25.4766C7.63644 28.4656 11.4452 30.0818 16.0105 30.2729C16.3062 30.2816 16.5931 30.2903 16.8801 30.2903C19.4628 30.2903 21.8541 29.8298 24.002 28.9088C24.5411 28.6828 25.0542 28.4135 25.5933 28.1094C25.8803 27.9443 26.1586 27.7618 26.4281 27.5793L26.6281 27.449L26.9673 27.2144C27.3673 26.9189 27.7586 26.6061 28.1238 26.2759L28.2543 26.1543C28.4717 25.9458 28.6891 25.7372 28.8891 25.52L29.6543 24.6511L29.9499 24.2861L30.0891 24.0863L30.2282 23.8864C31.3674 21.9661 35.0892 14.9888 35.0892 14.9888V14.9714L35.3066 14.5456L35.4892 14.2154C36.037 13.2162 36.437 12.5124 36.9588 11.7651L36.9762 11.739C38.2023 9.96644 40.298 8.70652 42.7763 8.48929C46.9329 8.13303 50.5765 10.8614 50.9069 14.5804C51.2373 18.308 48.1416 21.6099 43.985 21.9748C43.1154 22.053 42.2806 21.9922 41.4893 21.8184L41.4719 21.8271C38.4197 21.1928 36.4805 18.9684 35.524 17.9778L31.5239 25.3288C31.5239 25.3288 32.7674 26.5801 33.6196 27.2057C34.4718 27.8313 35.5761 28.4395 36.4544 28.8219C38.5849 29.7342 40.9067 30.2816 43.472 30.2816C43.7676 30.2816 43.7067 30.2816 44.0198 30.2729C48.5851 30.0818 52.6548 28.3353 55.5853 25.3375C58.3679 22.4962 59.8723 19.2464 59.8897 15.4058V15.2929C59.8897 15.1104 59.881 14.8932 59.8723 14.676ZM75.177 29.517C73.0987 29.517 71.2204 29.2737 69.5334 28.7958C67.8464 28.3179 66.4029 27.5533 65.2115 26.5106C64.0115 25.4679 63.0898 24.1384 62.4376 22.5309C61.7854 20.9234 61.4636 18.9771 61.4636 16.7179V1.63356H70.9421V16.5876C70.9421 18.2819 71.3508 19.5071 72.1595 20.2804C72.9682 21.0451 74.003 21.4361 75.2465 21.4361C76.5248 21.4361 77.5596 21.0798 78.3596 20.3586C79.151 19.6461 79.5597 18.4557 79.5597 16.7874V1.63356H89.0468V16.5094C89.0468 18.8554 88.7164 20.8452 88.0468 22.4875C87.3859 24.1297 86.4468 25.4679 85.238 26.5106C84.0293 27.5533 82.5684 28.3092 80.8466 28.7958C79.1336 29.2737 77.2466 29.517 75.177 29.517Z" fill="white"/>
</svg>
