<svg width="10" height="16" viewBox="0 0 10 16" fill="none" xmlns="http://www.w3.org/2000/svg">
<path d="M6.83329 0.395996C5.8111 0.395996 4.83078 0.802059 4.10798 1.52486C3.38519 2.24765 2.97913 3.22797 2.97913 4.25016V6.396H0.916626C0.813072 6.396 0.729126 6.47994 0.729126 6.5835V9.41683C0.729126 9.52038 0.813073 9.60433 0.916626 9.60433H2.97913V15.4168C2.97913 15.5204 3.06307 15.6043 3.16663 15.6043H5.99996C6.10351 15.6043 6.18746 15.5204 6.18746 15.4168V9.60433H8.26823C8.35427 9.60433 8.42926 9.54577 8.45013 9.4623L9.15846 6.62897C9.18805 6.51063 9.09854 6.396 8.97656 6.396H6.18746V4.25016C6.18746 4.07888 6.2555 3.91461 6.37662 3.79349C6.49774 3.67237 6.66201 3.60433 6.83329 3.60433H8.99996C9.10351 3.60433 9.18746 3.52038 9.18746 3.41683V0.583496C9.18746 0.479943 9.10351 0.395996 8.99996 0.395996H6.83329Z" fill="white"/>
</svg>
