<svg id="Layer_1" data-name="Layer 1" xmlns="http://www.w3.org/2000/svg" viewBox="0 0 15.34 15.34"><defs><style>.cls-1{fill:#fff;}</style></defs><title>icon</title><path class="cls-1" d="M10.31.06A3.85,3.85,0,0,0,7.59,1.19,3.89,3.89,0,0,0,6.46,3.92V6.06H4.4a.19.19,0,0,0-.19.19V9.08a.18.18,0,0,0,.19.19H6.46v5.81a.18.18,0,0,0,.19.19H9.48a.19.19,0,0,0,.19-.19V9.27h2.08a.18.18,0,0,0,.18-.14l.71-2.83a.19.19,0,0,0-.18-.24H9.67V3.92a.66.66,0,0,1,.19-.46.64.64,0,0,1,.45-.19h2.17a.19.19,0,0,0,.19-.19V.25a.2.2,0,0,0-.19-.19Z"/></svg>