<svg id="Layer_1" data-name="Layer 1" xmlns="http://www.w3.org/2000/svg" viewBox="0 0 15.34 15.34"><defs><style>.cls-1,.cls-2{fill:#fff;}.cls-2{fill-rule:evenodd;}</style></defs><title>icon</title><path class="cls-1" d="M7.67,5a2.71,2.71,0,1,0,2.71,2.71A2.71,2.71,0,0,0,7.67,5Z"/><path class="cls-2" d="M3.31.24A38.53,38.53,0,0,1,12,.24a3.44,3.44,0,0,1,3,3,38.43,38.43,0,0,1,0,8.84,3.45,3.45,0,0,1-3,3,39.72,39.72,0,0,1-8.72,0,3.44,3.44,0,0,1-3-3,37.34,37.34,0,0,1,0-8.84A3.43,3.43,0,0,1,3.31.24Zm8.52,2.43a.83.83,0,1,0,0,1.66.83.83,0,1,0,0-1.66Zm-8.12,5a4,4,0,1,1,4,4A4,4,0,0,1,3.71,7.67Z"/></svg>