<svg width="20" height="22" viewBox="0 0 20 22" fill="none" xmlns="http://www.w3.org/2000/svg">
<path d="M10 5.29179C8.50426 5.29179 7.2917 6.50435 7.2917 8.00012C7.2917 9.49589 8.50426 10.7085 10 10.7085C11.4958 10.7085 12.7084 9.49589 12.7084 8.00012C12.7084 6.50435 11.4958 5.29179 10 5.29179Z" fill="white"/>
<path fill-rule="evenodd" clip-rule="evenodd" d="M5.64131 0.56801C8.51475 0.246861 11.4853 0.246861 14.3588 0.56801C15.9408 0.744821 17.2168 1.9913 17.4024 3.57885C17.746 6.51635 17.746 9.48389 17.4024 12.4214C17.2168 14.0089 15.9408 15.2554 14.3588 15.4322C11.4853 15.7534 8.51475 15.7534 5.64131 15.4322C4.05931 15.2554 2.78332 14.0089 2.59764 12.4214C2.25407 9.48389 2.25407 6.51635 2.59764 3.57885C2.78332 1.9913 4.05931 0.744821 5.64131 0.56801ZM14.1667 3.00012C13.7065 3.00012 13.3334 3.37322 13.3334 3.83345C13.3334 4.29369 13.7065 4.66679 14.1667 4.66679C14.6269 4.66679 15 4.29369 15 3.83345C15 3.37322 14.6269 3.00012 14.1667 3.00012ZM6.0417 8.00012C6.0417 5.81399 7.8139 4.04179 10 4.04179C12.1862 4.04179 13.9584 5.81399 13.9584 8.00012C13.9584 10.1862 12.1862 11.9585 10 11.9585C7.8139 11.9585 6.0417 10.1862 6.0417 8.00012Z" fill="white"/>
</svg>
