<svg width="140" height="50" viewBox="0 0 140 50" fill="none" xmlns="http://www.w3.org/2000/svg">
<path d="M11.52 33.64C9.75 33.64 8.55 32.65 8.31 30.19H18.9C18.93 29.89 18.93 29.5 18.93 29.2C18.93 24.34 15.9 21.01 11.49 21.01C6.96 21.01 3.81 24.37 3.81 29.2C3.81 34.12 7.02 37.39 11.73 37.39C15.03 37.39 17.79 35.68 18.93 32.2L15.21 30.88C14.46 32.86 13.26 33.64 11.52 33.64ZM11.49 24.52C12.96 24.52 14.04 25.36 14.46 27.25H8.43C8.82 25.39 9.84 24.52 11.49 24.52ZM35.6278 32.86H26.1778V16H21.4678V37H35.6278V32.86ZM44.3032 33.64C42.5332 33.64 41.3332 32.65 41.0932 30.19H51.6832C51.7132 29.89 51.7132 29.5 51.7132 29.2C51.7132 24.34 48.6832 21.01 44.2732 21.01C39.7432 21.01 36.5932 24.37 36.5932 29.2C36.5932 34.12 39.8032 37.39 44.5132 37.39C47.8132 37.39 50.5732 35.68 51.7132 32.2L47.9932 30.88C47.2432 32.86 46.0432 33.64 44.3032 33.64ZM44.2732 24.52C45.7432 24.52 46.8232 25.36 47.2432 27.25H41.2132C41.6032 25.39 42.6232 24.52 44.2732 24.52ZM60.671 21.01C57.581 21.01 54.821 22.24 53.651 25.63L57.311 27.22C57.881 25.78 58.931 24.94 60.491 24.94C62.441 24.94 63.371 25.87 63.371 27.61V28.87C62.501 28.06 61.211 27.61 59.591 27.61C55.601 27.61 53.291 29.62 53.291 32.5C53.291 35.5 55.481 37.39 59.201 37.39C61.181 37.39 62.741 36.76 63.701 35.5V37H67.781V27.19C67.781 23.02 64.541 21.01 60.671 21.01ZM60.641 34.24C58.931 34.24 57.821 33.58 57.821 32.44C57.821 31.3 58.931 30.64 60.641 30.64C62.351 30.64 63.461 31.3 63.461 32.44C63.461 33.58 62.351 34.24 60.641 34.24ZM78.6945 21.01C77.1345 21.01 75.7845 21.73 74.9145 23.47V21.43H70.5045V37H74.9145V28.9C74.9145 26.83 76.1145 25.75 77.7345 25.75H79.4445V21.01H78.6945ZM89.8636 21.01C88.1536 21.01 86.6836 21.67 85.7836 23.29V21.43H81.3736V37H85.7836V27.88C85.7836 25.9 86.9536 24.85 88.5436 24.85C89.8336 24.85 90.8536 25.81 90.8536 27.61V37H95.2636V26.83C95.2636 23.32 92.9536 21.01 89.8636 21.01ZM100.235 20.14C101.765 20.14 102.995 19.24 102.995 17.62C102.995 16 101.765 15.04 100.235 15.04C98.6749 15.04 97.4449 16 97.4449 17.62C97.4449 19.24 98.6749 20.14 100.235 20.14ZM97.9849 37H102.395V21.43H97.9849V37ZM113.77 21.01C112.06 21.01 110.59 21.67 109.69 23.29V21.43H105.28V37H109.69V27.88C109.69 25.9 110.86 24.85 112.45 24.85C113.74 24.85 114.76 25.81 114.76 27.61V37H119.17V26.83C119.17 23.32 116.86 21.01 113.77 21.01ZM129.241 42.85C135.031 42.85 137.551 40.87 137.551 37.9C137.551 35.08 135.001 33.19 130.141 33.19H129.241C127.771 33.19 125.251 33.25 125.251 32.35C125.251 31.33 127.261 31.42 128.881 31.42C133.201 31.42 136.171 29.68 136.171 26.83C136.171 25.6 135.691 24.76 134.761 24.1C135.781 23.89 136.771 23.62 137.611 23.26L136.321 19.96C134.311 21.01 131.761 21.01 129.181 21.01C125.071 21.01 122.071 22.99 122.071 26.32C122.071 27.94 122.791 28.99 123.991 29.8C122.251 30.31 121.171 31.39 121.171 33.01C121.171 34.48 122.071 35.47 123.391 36.07C121.801 36.73 120.901 37.75 120.901 39.16C120.901 41.02 123.091 42.85 129.241 42.85ZM129.181 28.12C127.291 28.12 126.391 27.4 126.391 26.29C126.391 25.18 127.291 24.4 129.181 24.4C131.041 24.4 131.881 25.18 131.881 26.29C131.881 27.4 131.041 28.12 129.181 28.12ZM129.211 39.7C126.601 39.7 125.641 39.22 125.641 38.35C125.641 37.48 126.601 37 129.211 37C131.821 37 132.751 37.48 132.751 38.35C132.751 39.22 131.821 39.7 129.211 39.7Z" fill="#10C843"/>
</svg>
