<svg width="218" height="46" viewBox="0 0 218 46" fill="none" xmlns="http://www.w3.org/2000/svg">
<path d="M4.41259 32.7685V41.0994C4.41259 42.4879 4.90209 44.4482 7.34959 44.4482C9.63393 44.4482 10.4498 42.8963 10.4498 40.9361V32.6868C10.4498 32.1967 10.205 31.9517 9.96026 31.7884H12.163C11.9183 31.9517 11.6735 32.1967 11.6735 32.6868L11.5919 40.8544C11.5919 44.2848 9.71551 45.5916 7.10484 45.5916C4.90209 45.5916 2.04667 44.5298 2.04667 41.0178V32.7685C2.04667 32.2784 1.72034 32.0334 1.47559 31.87H5.14684C4.73892 32.0334 4.41259 32.2784 4.41259 32.7685ZM36.3933 32.7685C36.3933 32.2784 36.2301 32.0334 35.9038 31.87H38.025C37.7802 32.0334 37.5355 32.2784 37.5355 32.7685V46C37.5355 46 28.4797 34.7287 28.4797 34.5653V44.6115C28.4797 45.0199 28.7245 45.3466 28.9692 45.5099H26.848C27.0928 45.3466 27.3375 45.0199 27.3375 44.6115V33.8303C27.3375 33.0135 27.3375 33.0135 27.0112 32.6051C26.848 32.3601 26.5217 32.1151 26.1954 31.87H29.4587L36.4749 40.6911L36.3933 32.7685ZM56.5444 31.87C56.2181 32.0334 56.0549 32.2784 56.0549 32.7685V44.5298C56.0549 44.9382 56.2181 45.2649 56.5444 45.4283H53.1179C53.4442 45.2649 53.6074 44.9382 53.6074 44.5298V32.7685C53.6074 32.2784 53.4442 32.0334 53.1179 31.87H56.5444ZM79.6325 32.8501C79.7957 32.3601 79.7141 32.0334 79.2246 31.87H81.5089C81.0194 32.1967 81.0194 32.3601 80.7747 32.8501C80.4483 33.6669 75.8797 45.9183 75.8797 45.9183C75.8797 45.9183 70.9031 33.5852 70.5768 32.8501C70.332 32.4418 70.0873 32.1151 69.5162 31.87H73.6769C73.1874 32.0334 73.1058 32.5234 73.269 32.9318C73.269 33.0952 76.4508 41.3445 76.4508 41.3445C76.4508 41.3445 79.5509 33.0135 79.6325 32.8501ZM102.557 33.5852C102.231 33.0952 101.823 32.9318 101.089 32.8501H97.9072V37.424H100.763C101.007 37.424 101.334 37.0973 101.415 36.8523V38.9759C101.334 38.7308 101.007 38.4041 100.763 38.4041H97.9072V44.2848C98.3151 44.3665 99.4573 44.4482 100.355 44.3665C101.986 44.3665 102.721 44.3665 103.455 43.1413L103.047 45.4283H94.8886C95.215 45.2649 95.4597 45.0199 95.4597 44.5298V32.7685C95.4597 32.2784 95.215 32.0334 94.8886 31.87H102.476L102.557 33.5852ZM123.361 38.5675C124.667 38.7308 125.238 39.6293 125.482 40.0376C125.482 40.0376 127.767 43.7947 128.419 44.6115C128.746 45.1016 129.643 45.4283 129.643 45.4283H127.196C126.461 45.4283 125.89 44.9382 125.482 44.4482C124.667 43.223 123.769 41.7528 123.116 40.6094C122.627 39.7926 122.219 38.9759 121.403 38.9759H120.587V44.4482C120.587 44.8565 120.832 45.1832 121.077 45.3466H117.65C117.977 45.1832 118.14 44.8565 118.14 44.4482V32.7685C118.14 32.2784 117.977 32.0334 117.65 31.87H121.73C125.646 31.87 126.543 33.9119 126.543 35.2188C126.543 37.3423 124.667 38.4041 123.361 38.5675ZM120.506 32.8501V38.0774H121.322C122.627 38.0774 123.932 37.3423 123.932 35.3004C123.932 34.402 123.443 32.7685 121.566 32.7685C121.077 32.7685 120.506 32.8501 120.506 32.8501ZM150.365 41.4261C150.365 43.9581 148.244 45.5916 145.96 45.5916C144.247 45.5916 143.023 44.9382 142.289 44.6115L142.207 41.2628C142.533 42.6513 143.676 44.5298 145.634 44.5298C147.51 44.5298 148.081 43.1413 148.081 42.1612C148.081 40.2827 146.449 39.956 144.736 38.9759C143.023 37.9957 142.207 36.8523 142.207 35.3821C142.207 32.6868 144.573 31.625 146.368 31.625C147.02 31.625 148.244 31.7884 149.223 32.3601L149.305 35.3004C149.06 34.2386 147.999 32.6051 146.123 32.6051C144.655 32.6051 144.083 33.6669 144.083 34.4837C144.083 35.7088 144.899 36.1989 146.694 37.0156C148.571 37.9957 150.365 38.6491 150.365 41.4261ZM168.558 31.87C168.232 32.0334 168.069 32.2784 168.069 32.7685V44.5298C168.069 44.9382 168.232 45.2649 168.558 45.4283H165.132C165.458 45.2649 165.621 44.9382 165.621 44.5298V32.7685C165.621 32.2784 165.458 32.0334 165.132 31.87H168.558ZM189.117 32.8501V44.5298C189.117 44.9382 189.362 45.2649 189.607 45.4283H186.262C186.588 45.2649 186.752 44.9382 186.752 44.5298V32.8501C185.365 32.8501 183.733 33.0135 183.733 33.0135C183.243 33.0135 182.917 33.5036 182.754 33.8303V31.87H193.115V33.8303C192.952 33.5036 192.707 33.0952 192.218 33.0135C192.218 33.0135 190.504 32.8501 189.117 32.8501ZM217.101 31.87C216.53 32.0334 216.04 32.6051 215.877 33.0952L212.858 39.1392V44.5298C212.858 44.9382 213.185 45.2649 213.511 45.4283H209.758C210.003 45.2649 210.411 45.0199 210.411 44.5298V39.2209L206.74 32.7685C206.495 32.2784 206.25 32.1151 205.76 31.7884H210.003C209.513 31.9517 209.187 32.1151 209.677 33.0135L212.369 37.9141L214.898 32.7685C215.143 32.3601 215.061 31.87 214.49 31.7884L217.101 31.87Z" fill="white"/>
<path d="M16.0212 0.570922H20.4255C20.0177 0.815603 19.773 1.2234 19.773 1.79433V18.1064C19.773 18.6773 20.0177 19.0851 20.4255 19.3298H15.695C16.1028 19.0851 16.3475 18.6773 16.3475 18.1064V4.24113C16.3475 3.91489 16.429 3.58865 16.429 3.58865L16.1844 4.24113L9.98577 19.8191L3.62407 4.64894L3.37939 3.91489V18.1064C3.37939 18.6773 3.70563 19.0851 4.11343 19.3298H1.25882C1.66663 19.0851 1.91131 18.6773 1.91131 18.1064V1.79433C1.91131 1.30496 1.5035 0.734042 1.0957 0.570922H5.74464L10.9645 13.2943L16.0212 0.570922ZM29.4787 0.570922C29.0709 0.815603 28.8262 1.14184 28.8262 1.79433V18.1064C28.8262 18.6773 29.0709 19.0851 29.4787 19.3298H24.7482C25.156 19.0851 25.4007 18.6773 25.4007 18.1064V1.79433C25.4007 1.14184 25.156 0.734042 24.7482 0.570922H29.4787ZM49.6241 6.03546C47.9929 2.20213 44.9751 1.79433 43.6702 1.79433C39.1844 1.79433 36.656 5.21986 36.656 9.70567C36.656 13.539 38.4503 18.1879 43.9148 18.1879C45.1383 18.1879 48.156 17.7801 49.8688 13.9468C49.9503 13.8652 49.6241 17.9433 49.6241 17.9433C47.4219 19.2482 45.1383 19.7376 42.9361 19.7376C37.7978 19.7376 33.1489 15.9858 33.1489 10.1135C33.1489 5.30142 36.5744 0.326241 43.2624 0.326241C45.3829 0.326241 47.4219 0.734043 49.4609 1.79433C49.3794 1.71277 49.7056 6.11702 49.6241 6.03546ZM65.039 0.570922H69.7695C69.3617 0.815603 69.0354 1.14184 69.0354 1.79433V18.1064C69.0354 18.6773 69.3617 19.0851 69.7695 19.3298H65.039C65.4468 19.0851 65.6914 18.6773 65.6914 18.1064V9.70567H57.5354V18.1879C57.5354 18.7589 57.7801 19.1667 58.1879 19.4113H53.4574C53.8652 19.1667 54.1099 18.7589 54.1099 18.1879V1.87589C54.1099 1.2234 53.8652 0.815603 53.4574 0.652482H58.1879C57.7801 0.897163 57.5354 1.2234 57.5354 1.87589V8.40071H65.6914V1.87589C65.6914 1.2234 65.4468 0.815603 65.039 0.570922ZM78.8226 0.570922C78.4148 0.815603 78.1702 1.14184 78.1702 1.79433V18.1064C78.1702 18.6773 78.4148 19.0851 78.8226 19.3298H74.0922C74.5 19.0851 74.7446 18.6773 74.7446 18.1064V1.79433C74.7446 1.14184 74.5 0.734042 74.0922 0.570922H78.8226ZM98.8049 1.71277L98.968 6.11702C97.6631 2.36525 94.3191 1.79433 93.0141 1.79433C88.5283 1.79433 86 5.21986 86 9.70567C86 13.539 87.7943 18.1879 93.2588 18.1879C93.8297 18.1879 95.3794 18.1064 96.6028 17.2908V12.4787C96.6028 11.8262 96.3581 11.4184 95.9503 11.1738H100.681C100.273 11.4184 100.028 11.8262 100.028 12.4787V16.5567C100.028 17.1277 100.355 17.617 100.436 17.6986C98.234 19.0035 94.4822 19.7376 92.3617 19.7376C87.1418 19.7376 82.4929 15.9858 82.4929 10.1135C82.4929 5.30142 85.9184 0.326241 92.6879 0.326241C94.8085 0.244681 96.6843 0.815603 98.8049 1.71277ZM117.972 18.0248C118.216 18.5957 118.379 18.922 119.277 19.4113H113.649C114.301 19.0035 114.464 18.5957 114.301 18.0248C114.22 17.7801 113.567 16.0674 112.833 14.1915H106.39C105.574 16.0674 105.004 17.6986 104.922 18.0248C104.677 18.6773 104.84 19.0851 105.493 19.4113H101.904C102.638 18.922 102.883 18.5957 103.128 18.0248C103.617 16.9645 110.55 0 110.55 0C110.55 0 117.482 17.0461 117.972 18.0248ZM112.181 12.805C110.957 9.70567 109.489 6.03546 109.489 6.03546C109.489 6.03546 107.695 10.766 106.879 12.805H112.181ZM134.202 1.79433C134.202 1.14184 133.957 0.734042 133.55 0.570922H136.486C136.078 0.815603 135.833 1.14184 135.833 1.79433V20.1454C135.833 20.1454 123.191 4.48582 123.191 4.24113V18.1064C123.191 18.6773 123.518 19.0851 123.925 19.3298H120.908C121.316 19.0851 121.56 18.6773 121.56 18.1064V3.34397C121.56 2.28369 121.56 2.20213 121.071 1.63121C120.826 1.30496 120.418 0.897163 119.847 0.570922H124.333L134.039 12.7234V1.79433H134.202ZM157.936 13.8652C157.936 17.2908 155.081 19.656 151.819 19.656C149.454 19.656 147.66 18.7589 146.762 18.3511L146.599 13.7021C147.089 15.6596 148.638 18.2695 151.411 18.2695C154.021 18.2695 154.837 16.3121 154.837 14.9255C154.837 12.234 152.553 11.9078 150.188 10.5213C147.741 9.13475 146.681 7.58511 146.681 5.5461C146.681 1.79433 150.025 0.244681 152.39 0.244681C153.287 0.244681 155 0.407801 156.386 1.30496L156.55 5.38298C156.223 3.91489 154.674 1.71277 152.145 1.71277C150.188 1.71277 149.372 3.18085 149.372 4.40425C149.372 6.11702 150.514 6.7695 152.961 7.91135C155.408 9.13475 157.936 10.0319 157.936 13.8652ZM168.457 1.95745V18.1879C168.457 18.7589 168.784 19.1667 169.11 19.4113H164.379C164.787 19.1667 165.032 18.7589 165.032 18.1879V1.95745C163.074 1.95745 160.791 2.12057 160.791 2.12057C160.138 2.12057 159.73 2.77305 159.486 3.26241V0.570922H173.922V3.26241C173.677 2.77305 173.351 2.20213 172.699 2.12057C172.78 2.20213 170.333 1.95745 168.457 1.95745ZM187.706 18.0248C187.95 18.5957 188.113 18.922 189.011 19.4113H183.383C184.035 19.0035 184.199 18.5957 184.035 18.0248C183.954 17.7801 183.301 16.0674 182.567 14.1915H176.124C175.308 16.0674 174.738 17.6986 174.656 18.0248C174.411 18.6773 174.574 19.0851 175.227 19.4113H171.638C172.372 18.922 172.617 18.5957 172.862 18.0248C173.351 16.9645 180.284 0 180.284 0C180.284 0 187.216 17.0461 187.706 18.0248ZM181.915 12.805C180.691 9.70567 179.223 6.03546 179.223 6.03546C179.223 6.03546 177.429 10.766 176.613 12.805H181.915ZM195.862 1.95745V18.1879C195.862 18.7589 196.188 19.1667 196.514 19.4113H191.865C192.273 19.1667 192.518 18.7589 192.518 18.1879V1.95745C190.56 1.95745 188.277 2.12057 188.277 2.12057C187.624 2.12057 187.216 2.77305 186.972 3.26241V0.570922H201.408V3.26241C201.163 2.77305 200.837 2.20213 200.184 2.12057C200.184 2.20213 197.738 1.95745 195.862 1.95745ZM214.865 3.01773C214.376 2.28369 213.805 2.03901 212.826 2.03901C212.011 1.95745 208.34 1.95745 208.34 1.95745V8.31915H212.337C212.663 8.31915 213.152 7.91135 213.316 7.50355V10.4397C213.152 10.0319 212.745 9.62411 212.337 9.62411H208.34V17.7801C208.83 17.8617 210.461 17.9433 211.766 17.9433C214.05 17.8617 215.11 17.9433 216.089 16.2305L215.518 19.4113H204.181C204.589 19.1667 204.996 18.8404 204.996 18.1879V1.87589C204.996 1.2234 204.589 0.815603 204.181 0.652482H214.784L214.865 3.01773Z" fill="white"/>
<path d="M0.900391 24.1499H216.525V25.8749H0.900391V24.1499Z" fill="white"/>
</svg>
