<svg width="217" height="64" viewBox="0 0 217 64" fill="none" xmlns="http://www.w3.org/2000/svg">
<path d="M27.0952 23.2804C27.0952 22.2794 26.7723 21.5045 26.0297 21.0524C25.5777 20.7941 24.6736 20.6973 23.8986 20.6973H18.3772V31.837H24.383C25.7714 31.837 26.8692 32.1599 26.9661 33.3869H27.0952V23.2804Z" fill="#1E1E1E"/>
<path d="M27.0952 23.2804C27.0952 22.2794 26.7723 21.5045 26.0297 21.0524C25.5777 20.7941 24.6736 20.6973 23.8986 20.6973H18.3772V31.837H24.383C25.7714 31.837 26.8692 32.1599 26.9661 33.3869H27.0952V23.2804Z" stroke="white" stroke-width="1.057" stroke-miterlimit="3.8637"/>
<path d="M27.0947 23.2801C27.0947 22.2792 27.4176 21.5042 28.1603 21.0522C28.6123 20.7939 29.7101 20.697 30.4528 20.697H36.0065V31.8367H29.9684C28.58 31.8367 27.2885 32.1596 27.2239 33.3866H27.0947V23.2801Z" fill="#1E1E1E"/>
<path d="M27.0947 23.2801C27.0947 22.2792 27.4176 21.5042 28.1603 21.0522C28.6123 20.7939 29.7101 20.697 30.4528 20.697H36.0065V31.8367H29.9684C28.58 31.8367 27.2885 32.1596 27.2239 33.3866H27.0947V23.2801Z" stroke="white" stroke-width="1.057" stroke-miterlimit="3.8637"/>
<path d="M37.1686 21.5369V33.3224H28.6443L28.5474 33.5807C28.3859 33.9359 28.1276 34.291 27.1912 34.291C26.2549 34.291 25.9966 33.9359 25.8351 33.5807L25.7382 33.3224H17.2139V21.5369H16.439V21.8921L15.6964 21.666C15.5995 21.3754 15.3412 21.1494 15.0183 21.1494C14.6308 21.1494 14.3079 21.4723 14.3079 21.8598C14.3079 22.2472 14.6308 22.5701 15.0183 22.5701C15.1797 22.5701 15.3412 22.5056 15.4703 22.4087L16.439 22.6993V23.6357L15.6964 23.5065C15.5995 23.2482 15.3412 23.0868 15.0506 23.0868C14.6631 23.0868 14.3402 23.4096 14.3402 23.7971C14.3402 24.1846 14.6631 24.5075 15.0506 24.5075C15.2443 24.5075 15.438 24.4106 15.5672 24.2814L16.439 24.4429V25.4116L15.6964 25.3793C15.5672 25.1855 15.3412 25.0241 15.0829 25.0241C14.6954 25.0241 14.3725 25.347 14.3725 25.7345C14.3725 26.1219 14.6954 26.4448 15.0829 26.4448C15.3089 26.4448 15.5349 26.3157 15.6641 26.1542L16.439 26.1865V27.2197L15.6641 27.252C15.5349 27.0583 15.3412 26.9614 15.0829 26.9614C14.6954 26.9614 14.3725 27.2843 14.3725 27.6718C14.3725 28.0593 14.6954 28.3822 15.0829 28.3822C15.3412 28.3822 15.5672 28.253 15.6641 28.0593L16.4067 28.027V28.9956L15.5672 29.1248C15.438 28.9956 15.2443 28.8988 15.0506 28.8988C14.6631 28.8988 14.3402 29.2217 14.3402 29.6091C14.3402 29.9966 14.6631 30.3195 15.0506 30.3195C15.3412 30.3195 15.5995 30.1581 15.6964 29.8997L16.4067 29.7706V30.707L15.4703 30.9976C15.3412 30.9007 15.1797 30.8361 15.0183 30.8361C14.6308 30.8361 14.3079 31.159 14.3079 31.5465C14.3079 31.9339 14.6308 32.2568 15.0183 32.2568C15.3412 32.2568 15.5995 32.0308 15.6964 31.7402L16.4067 31.5142V32.4183L15.3735 32.8703C15.2766 32.8057 15.1474 32.7412 14.986 32.7412C14.5985 32.7412 14.2756 33.0641 14.2756 33.4515C14.2756 33.839 14.5985 34.1619 14.986 34.1619C15.3412 34.1619 15.6318 33.9036 15.6641 33.5807L16.3744 33.2578V34.0973H25.2862C25.6414 34.7108 26.2549 35.0337 27.1912 35.0337C28.1276 35.0337 28.7411 34.7108 29.0963 34.0973H37.9112V21.5369H37.1686Z" fill="white"/>
<path d="M21.3797 17.6299C19.6038 17.6299 18.1508 17.9205 18.1508 18.2434C18.1508 18.5986 19.6038 18.8569 21.3797 18.8569C23.1556 18.8569 24.6086 18.5663 24.6086 18.2434C24.6086 17.8882 23.1878 17.6299 21.3797 17.6299Z" fill="white"/>
<path d="M25.8355 13.755L23.9627 15.0789L23.9304 15.2081L24.3825 15.4018C24.4793 15.4341 24.4793 15.5309 24.4148 15.5632L23.2524 16.5642H23.1555L22.316 15.3372C22.2514 15.2726 22.2837 15.1758 22.3806 15.1758L22.9295 15.0789V14.9497L21.4765 12.9155H21.2504L19.7974 14.9497V15.0789L20.3464 15.1758C20.4432 15.208 20.4755 15.2726 20.4109 15.3372L19.5714 16.5642H19.4745L18.3767 15.5632C18.3444 15.5309 18.3444 15.4664 18.409 15.4018L18.8611 15.2081L18.8288 15.0789L16.8914 13.755L16.73 13.8196L17.8601 17.3068C18.4413 17.0485 19.7651 16.8548 21.315 16.8548C22.8649 16.8548 24.1887 17.0485 24.7699 17.3068L25.9001 13.8196L25.8355 13.755Z" fill="white"/>
<path d="M27.192 40.9424C25.4161 40.9424 23.9631 41.233 23.9631 41.5559C23.9631 41.9111 25.4161 42.1694 27.192 42.1694C28.9679 42.1694 30.4209 41.8788 30.4209 41.5559C30.3887 41.233 28.9679 40.9424 27.192 40.9424Z" fill="white"/>
<path d="M31.6152 37.0678L29.7424 38.3916V38.5208L30.1945 38.7145C30.2914 38.7468 30.2914 38.8437 30.2268 38.876L29.0644 39.8769H28.9675L28.128 38.6499C28.0634 38.5854 28.0957 38.4885 28.1926 38.4885L28.7415 38.3916V38.2625L27.2885 36.2283H27.0625L25.6094 38.2625V38.3916L26.1584 38.4885C26.2552 38.5208 26.2875 38.5854 26.2229 38.6499L25.3834 39.8769H25.2866L24.1887 38.876C24.1564 38.8437 24.1564 38.7468 24.221 38.7145L24.6731 38.5208V38.3916L22.7357 37.0678L22.5743 37.1324L23.7044 40.6196C24.2856 40.3613 25.6095 40.1675 27.1593 40.1675C28.7092 40.1675 30.033 40.3613 30.6143 40.6196L31.7444 37.1324L31.6152 37.0678Z" fill="white"/>
<path d="M32.9391 17.6299C31.1632 17.6299 29.7102 17.9205 29.7102 18.2434C29.7102 18.5986 31.1632 18.8569 32.9391 18.8569C34.715 18.8569 36.168 18.5663 36.168 18.2434C36.168 17.8882 34.715 17.6299 32.9391 17.6299Z" fill="white"/>
<path d="M37.3949 13.755L35.5222 15.0789L35.4899 15.2081L35.9419 15.4018C36.0388 15.4341 36.0388 15.5309 35.9742 15.5632L34.8118 16.5642H34.7149L33.8754 15.3372C33.8109 15.2726 33.8431 15.1758 33.94 15.1758L34.4889 15.0789V14.9497L33.0359 12.9155H32.8099L31.3569 14.9497V15.0789L31.9058 15.1758C32.0027 15.208 32.035 15.2726 31.9704 15.3372L31.1309 16.5642H31.034L29.9362 15.5632C29.9039 15.5309 29.9039 15.4664 29.9685 15.4018L30.4205 15.2081L30.3882 15.0789L28.4509 13.755L28.2894 13.8196L29.4195 17.3068C30.0007 17.0485 31.3246 16.8548 32.8745 16.8548C34.4243 16.8548 35.7482 17.0485 36.3294 17.3068L37.4595 13.8196L37.3949 13.755Z" fill="white"/>
<path d="M19.9265 22.5054C20.2171 22.5054 20.4755 22.57 20.6369 22.7314C20.7661 22.8283 20.8629 23.022 20.8629 23.248C20.8629 23.8615 20.4109 24.1198 19.8297 24.1198H19.1839V24.023C19.3776 24.023 19.3776 23.9907 19.3776 23.7324V22.8928C19.3776 22.6345 19.3453 22.6022 19.1839 22.6022V22.5054H19.9265ZM19.8297 23.7001C19.8297 23.9261 19.8943 23.9584 19.9911 23.9584C20.2171 23.9584 20.4109 23.7324 20.4109 23.2803C20.4109 22.7637 20.1526 22.6022 19.9265 22.6022C19.862 22.6022 19.8297 22.6022 19.8297 22.6345C19.8297 22.6345 19.8297 22.6991 19.8297 22.7637V23.7001Z" fill="white"/>
<path d="M22.7358 23.2804C22.7358 23.7971 22.3806 24.1199 21.8963 24.1199C21.4119 24.1199 21.0891 23.7648 21.0891 23.3127C21.0891 22.9252 21.3474 22.4409 21.9286 22.4409C22.3806 22.4409 22.7358 22.7961 22.7358 23.2804ZM21.5411 23.2159C21.5411 23.6679 21.7025 23.9908 21.9609 23.9908C22.1869 23.9908 22.2837 23.7971 22.2837 23.345C22.2837 22.8607 22.1223 22.5701 21.8963 22.5701C21.7025 22.5701 21.5411 22.7961 21.5411 23.2159Z" fill="white"/>
<path d="M24.8987 22.5054V22.6022C24.705 22.6345 24.705 22.6345 24.705 22.8928L24.7373 23.7001C24.7373 23.9584 24.7373 23.9907 24.931 23.9907V24.0875H24.1561V23.9907C24.3498 23.9584 24.3498 23.9584 24.3498 23.7001V22.8283L23.8655 24.0553H23.7363L23.2843 22.9251L23.252 23.474C23.252 23.7001 23.252 23.7969 23.252 23.8938C23.252 23.9907 23.3165 24.023 23.478 24.023V24.1198H22.8645V24.023C22.9937 24.023 23.0259 23.9907 23.0582 23.8938C23.0582 23.8292 23.0905 23.7001 23.0905 23.474L23.1228 22.9897C23.1551 22.6668 23.1228 22.6668 22.9291 22.6345V22.5377H23.5103L23.93 23.5063L24.3175 22.5377H24.8987V22.5054Z" fill="white"/>
<path d="M25.7063 23.7001C25.7063 23.9584 25.7386 23.9907 25.9001 23.9907V24.0875H25.0928V23.9907C25.2543 23.9907 25.2866 23.9584 25.2866 23.7001V22.8928C25.2866 22.6345 25.2543 22.6022 25.0928 22.6022V22.5054H25.9001V22.6022C25.7386 22.6022 25.7063 22.6345 25.7063 22.8928V23.7001Z" fill="white"/>
<path d="M21.7347 27.0581H21.5087L20.6046 25.8956V26.3477C20.6046 26.606 20.6046 26.7352 20.6369 26.832C20.6369 26.9289 20.7015 26.9612 20.8629 26.9612V27.0581H20.2495V26.9612C20.3463 26.9612 20.4109 26.9289 20.4432 26.832C20.4432 26.7675 20.4755 26.606 20.4755 26.3477V25.8956C20.4755 25.7019 20.4755 25.6696 20.4109 25.605C20.3786 25.5405 20.314 25.5405 20.2172 25.5405V25.4436H20.7661L21.5733 26.4769V26.154C21.5733 25.8957 21.5733 25.7665 21.541 25.6696C21.541 25.5728 21.4764 25.5405 21.315 25.5405V25.4436H21.9285V25.5405C21.7993 25.5405 21.7347 25.5728 21.7347 25.6696C21.7347 25.7342 21.7025 25.8957 21.7025 26.154V27.0581H21.7347Z" fill="white"/>
<path d="M22.7361 27.0581C22.5746 26.606 22.3486 26.0248 22.2517 25.7665C22.1549 25.5728 22.1226 25.5405 21.9934 25.5405V25.4436H22.8006V25.5405H22.7038C22.6069 25.5405 22.6069 25.5728 22.6392 25.6696C22.6715 25.7988 22.8652 26.2831 22.9621 26.5414C23.0267 26.3477 23.1881 25.8634 23.2204 25.7342C23.285 25.5728 23.2527 25.5728 23.1558 25.5405H23.0912V25.4436H23.6724V25.5405C23.5433 25.5728 23.511 25.5728 23.4141 25.7988C23.4141 25.8311 23.0912 26.5737 22.9298 27.0581H22.7361Z" fill="white"/>
<path d="M23.8336 26.5415C23.8981 26.6707 24.0273 26.9613 24.2856 26.9613C24.4148 26.9613 24.5116 26.8644 24.5116 26.703C24.5116 26.5738 24.4148 26.477 24.2533 26.4124L24.221 26.3801C24.0273 26.2832 23.8013 26.1541 23.8013 25.8958C23.8013 25.6052 23.995 25.3792 24.3825 25.3792C24.447 25.3792 24.5439 25.3791 24.6085 25.4114C24.6731 25.4114 24.7054 25.4437 24.7377 25.4437C24.7377 25.5406 24.7699 25.6697 24.8022 25.8312L24.7054 25.8635C24.6408 25.702 24.5762 25.5406 24.3825 25.5406C24.2533 25.5406 24.1564 25.6375 24.1564 25.7666C24.1564 25.8958 24.2533 25.9604 24.4148 26.0249L24.4793 26.0572C24.7054 26.1541 24.8991 26.2832 24.8991 26.5738C24.8991 26.8644 24.6408 27.0905 24.2856 27.0905C24.1887 27.0905 24.0919 27.0582 24.0273 27.0582C23.9627 27.0259 23.8981 27.0259 23.8659 26.9936C23.8336 26.8644 23.8013 26.7353 23.769 26.5738L23.8336 26.5415Z" fill="white"/>
<path d="M20.6372 29.577C20.6372 29.8353 20.6695 29.8676 20.8309 29.8676V29.9645H20.0237V29.8676C20.1851 29.8676 20.2174 29.8353 20.2174 29.577V28.7698C20.2174 28.5115 20.1851 28.4792 20.0237 28.4792V28.3823H20.8309V28.4792C20.6695 28.4792 20.6372 28.5115 20.6372 28.7698V29.577Z" fill="white"/>
<path d="M21.606 29.6093C21.606 29.7385 21.606 29.803 21.6706 29.8353C21.7029 29.8676 21.7674 29.8676 21.832 29.8676C21.8966 29.8676 22.0257 29.8676 22.058 29.803C22.0903 29.7708 22.1549 29.7062 22.1872 29.5447L22.2841 29.577C22.2841 29.6739 22.2195 29.9322 22.1872 29.9968H20.9602V29.8999C21.1539 29.8999 21.1539 29.8676 21.1539 29.6093V28.8021C21.1539 28.5438 21.1217 28.5115 20.9602 28.5115V28.3823H21.7674V28.4792C21.606 28.4792 21.5737 28.5115 21.5737 28.7698V29.6093H21.606Z" fill="white"/>
<path d="M22.9936 29.6093C22.9936 29.7385 22.9936 29.803 23.0582 29.8353C23.0905 29.8676 23.1551 29.8676 23.2196 29.8676C23.2842 29.8676 23.4134 29.8676 23.4457 29.803C23.478 29.7708 23.5425 29.7062 23.5748 29.5447L23.6717 29.577C23.6717 29.6739 23.6071 29.9322 23.5748 29.9968H22.3801V29.8999C22.5739 29.8999 22.5739 29.8676 22.5739 29.6093V28.8021C22.5739 28.5438 22.5416 28.5115 22.3801 28.5115V28.3823H23.1874V28.4792C23.0259 28.4792 22.9936 28.5115 22.9936 28.7698V29.6093Z" fill="white"/>
<path d="M24.156 29.9968C23.9945 29.5447 23.7685 28.9635 23.6716 28.7052C23.5748 28.5115 23.5425 28.4792 23.4133 28.4792V28.3823H24.2206V28.4792H24.1237C24.0268 28.4792 24.0268 28.5115 24.0591 28.6084C24.0914 28.7375 24.2851 29.2218 24.382 29.4801C24.4466 29.2864 24.608 28.8021 24.6403 28.6729C24.7049 28.5115 24.6726 28.5115 24.5757 28.4792H24.5112V28.3823H25.0924V28.4792C24.9632 28.5115 24.9309 28.5115 24.8341 28.7375C24.8341 28.7698 24.5112 29.5124 24.3497 29.9968H24.156Z" fill="white"/>
<path d="M30.4846 22.5054V22.6022C30.2909 22.6345 30.2909 22.6345 30.2909 22.8928L30.3232 23.7001C30.3232 23.9584 30.3232 23.9907 30.5169 23.9907V24.0875H29.742V23.9907C29.9357 23.9584 29.9357 23.9584 29.9357 23.7001V22.8283L29.4514 24.0553H29.3222L28.8702 22.9251L28.8379 23.474C28.8379 23.7001 28.8379 23.7969 28.8379 23.8938C28.8379 23.9907 28.9025 24.023 29.0639 24.023V24.1198H28.4504V24.023C28.5796 24.023 28.6119 23.9907 28.6442 23.8938C28.6442 23.8292 28.6765 23.7001 28.6765 23.474L28.7088 22.9897C28.741 22.6668 28.7088 22.6668 28.515 22.6345V22.5377H29.0962L29.516 23.5063L29.9034 22.5377H30.4846V22.5054Z" fill="white"/>
<path d="M31.2923 23.7001C31.2923 23.9584 31.3246 23.9907 31.486 23.9907V24.0875H30.6788V23.9907C30.8402 23.9907 30.8725 23.9584 30.8725 23.7001V22.8928C30.8725 22.6345 30.8402 22.6022 30.6788 22.6022V22.5054H31.486V22.6022C31.3246 22.6022 31.2923 22.6345 31.2923 22.8928V23.7001Z" fill="white"/>
<path d="M33.1008 24.1198H32.8748L31.9707 22.9574V23.4095C31.9707 23.6678 31.9707 23.7969 32.003 23.8938C32.003 23.9907 32.0676 24.023 32.229 24.023V24.1198H31.6155V24.023C31.7124 24.023 31.777 23.9907 31.8093 23.8938C31.8093 23.8292 31.8416 23.7001 31.8416 23.4095V22.9574C31.8416 22.7637 31.8416 22.7314 31.777 22.6668C31.7447 22.6022 31.6801 22.6022 31.5833 22.6022V22.5054H32.1322L32.9394 23.5386V23.2157C32.9394 22.9574 32.9394 22.8283 32.9071 22.7314C32.9071 22.6345 32.8425 22.6022 32.6488 22.6022V22.5054H33.2623V22.6022C33.1331 22.6022 33.0685 22.6345 33.0685 22.7314C33.0685 22.796 33.0363 22.9574 33.0363 23.2157V24.1198H33.1008Z" fill="white"/>
<path d="M34.1337 23.9908H34.1983C34.2952 23.9908 34.2952 23.9585 34.2629 23.8616L34.166 23.6033H33.7462L33.6817 23.8293C33.6494 23.9262 33.6494 23.9585 33.7462 23.9585H33.8108V24.0554H33.2296V23.9585C33.3588 23.9262 33.3911 23.9262 33.4879 23.7325L33.9723 22.4732L34.1337 22.4409L34.2951 22.893C34.392 23.1836 34.5212 23.4742 34.5858 23.7325C34.6503 23.9585 34.7149 23.9585 34.8441 23.9908V24.0877H34.0691V23.9908H34.1337ZM33.8108 23.4742H34.1337L33.9723 22.9898L33.8108 23.4742Z" fill="white"/>
<path d="M30.4532 26.6382C30.4532 26.8966 30.4855 26.9288 30.6792 26.9288V27.0257H29.8074V26.9288C30.0011 26.9288 30.0334 26.8966 30.0334 26.6382V25.5727H30.0011C29.8397 25.5727 29.7751 25.605 29.7428 25.6373C29.7105 25.6696 29.6782 25.7342 29.6459 25.8633H29.5491C29.5491 25.6696 29.5814 25.4758 29.5814 25.3467H29.6459C29.6782 25.4113 29.7105 25.4113 29.7751 25.4113H30.7438C30.8083 25.4113 30.8083 25.4113 30.8729 25.3467H30.9375C30.9375 25.4435 30.9375 25.6696 30.9698 25.831H30.8729C30.8406 25.6696 30.8083 25.605 30.7761 25.5727C30.7438 25.5404 30.6469 25.5081 30.55 25.5081H30.4532V26.6382Z" fill="white"/>
<path d="M31.7443 26.6383C31.7443 26.8966 31.7766 26.9289 31.9381 26.9289V27.0258H31.1309V26.9289C31.2923 26.9289 31.3246 26.8966 31.3246 26.6383V25.8311C31.3246 25.5728 31.2923 25.5405 31.1309 25.5405V25.4436H31.9381V25.5405C31.7766 25.5405 31.7443 25.5728 31.7443 25.8311V26.6383Z" fill="white"/>
<path d="M33.8109 26.2187C33.8109 26.7353 33.4557 27.0582 32.9713 27.0582C32.487 27.0582 32.1641 26.703 32.1641 26.2509C32.1641 25.8635 32.4224 25.3792 33.0036 25.3792C33.4557 25.4114 33.8109 25.7343 33.8109 26.2187ZM32.6162 26.1864C32.6162 26.6384 32.7776 26.9613 33.0359 26.9613C33.2619 26.9613 33.3588 26.7676 33.3588 26.3155C33.3588 25.8312 33.1651 25.5406 32.9713 25.5406C32.7453 25.5406 32.6162 25.7343 32.6162 26.1864Z" fill="white"/>
<path d="M31.1955 28.3821V28.4789C31.0017 28.5112 31.0017 28.5112 31.0017 28.7696L31.034 29.5768C31.034 29.8351 31.034 29.8674 31.2278 29.8674V29.9642H30.4528V29.8674C30.6466 29.8351 30.6466 29.8351 30.6466 29.5768V28.705L30.1622 29.9319H30.0331L29.581 28.8018L29.5487 29.3508C29.5487 29.5768 29.5487 29.6736 29.5487 29.7705C29.5487 29.8674 29.6133 29.8997 29.7747 29.8997V29.9965H29.1613V29.8997C29.2904 29.8997 29.3227 29.8674 29.355 29.7705C29.355 29.7059 29.3873 29.5768 29.3873 29.3508L29.4196 28.8664C29.4519 28.5435 29.4196 28.5435 29.2258 28.5112V28.3821H29.807L30.2268 29.3508L30.6143 28.3821H31.1955Z" fill="white"/>
<path d="M31.5829 28.7696C31.5829 28.5112 31.5506 28.4789 31.3892 28.4789V28.3821H32.5516C32.5516 28.4144 32.5516 28.6081 32.5839 28.8018H32.487C32.4547 28.6727 32.4224 28.6081 32.3901 28.5758C32.3578 28.5435 32.261 28.5112 32.1318 28.5112H32.0995C32.0027 28.5112 32.0027 28.5112 32.0027 28.6081V29.0924H32.1318C32.3578 29.0924 32.3578 29.0924 32.3901 28.8987H32.487V29.4799H32.3901C32.3578 29.2539 32.3578 29.2539 32.1318 29.2539H32.0027V29.6414C32.0027 29.7705 32.0027 29.8351 32.0672 29.8674C32.0995 29.8997 32.1641 29.8997 32.2287 29.8997C32.3255 29.8997 32.4224 29.8997 32.487 29.8351C32.5193 29.8028 32.5839 29.7059 32.6161 29.5768L32.713 29.6091C32.713 29.7382 32.6484 29.9965 32.6161 30.0611H31.3569V29.9642C31.5506 29.932 31.5506 29.932 31.5506 29.6736V28.7696H31.5829Z" fill="white"/>
<path d="M33.5526 29.8995H33.6172C33.714 29.8995 33.714 29.8672 33.6817 29.7703L33.5849 29.512H33.1974L33.1328 29.738C33.1005 29.8349 33.1005 29.8672 33.1974 29.8672H33.262V29.9641H32.7131V29.8672C32.8422 29.8349 32.8745 29.8349 32.9714 29.6412L33.4557 28.3819L33.6172 28.3496L33.7786 28.8017C33.8755 29.0923 34.0046 29.3829 34.0692 29.6412C34.1338 29.8672 34.1984 29.8672 34.3275 29.8672V29.9641H33.5526V29.8995ZM33.262 29.3506H33.5849L33.4234 28.8662L33.262 29.3506Z" fill="white"/>
<path d="M24.9637 49.7251C24.9637 50.0803 24.6731 50.3709 24.3179 50.3709C23.9627 50.3709 23.6721 50.0803 23.6721 49.7251C23.6721 49.3699 23.9627 49.0793 24.3179 49.0793C24.6731 49.0793 24.9637 49.3699 24.9637 49.7251Z" fill="white"/>
<path d="M31.486 50.7906C31.486 51.1457 31.1954 51.4363 30.8402 51.4363C30.4851 51.4363 30.1945 51.1457 30.1945 50.7906C30.1945 50.4354 30.4851 50.1448 30.8402 50.1448C31.1954 50.1448 31.486 50.4354 31.486 50.7906Z" fill="white"/>
<path d="M27.8055 4.39139C27.8055 4.74657 27.5149 5.03717 27.1597 5.03717C26.8045 5.03717 26.5139 4.74657 26.5139 4.39139C26.5139 4.03621 26.8045 3.74561 27.1597 3.74561C27.5149 3.74561 27.8055 4.03621 27.8055 4.39139Z" fill="white"/>
<path d="M43.0775 10.3968C43.0775 10.752 42.7546 11.0103 42.3994 11.0103C42.0442 11.0103 41.7536 10.6874 41.7859 10.3322C41.7859 9.97707 42.1088 9.71875 42.464 9.71875C42.8191 9.75104 43.0775 10.0416 43.0775 10.3968Z" fill="white"/>
<path d="M10.8856 37.9718C11.1439 38.327 11.2731 38.7145 11.2408 39.102C11.2408 39.554 11.0793 39.9092 10.2721 40.4581L7.94729 42.1048L7.52754 41.4913C7.52754 41.4913 9.91692 39.8123 9.94921 39.78C10.369 39.4894 10.5304 39.2957 10.5304 38.9728C10.5304 38.7791 10.4658 38.553 10.3044 38.327C10.0784 38.0041 9.78777 37.875 9.49717 37.875C9.27114 37.875 9.01283 38.0364 8.56078 38.3593L6.39742 39.8446L5.97766 39.2311L8.04416 37.8104C8.62536 37.3906 9.07741 37.1323 9.49717 37.1323C10.1429 37.1646 10.595 37.5521 10.8856 37.9718Z" fill="white"/>
<path d="M3.45917 33.4515L7.88276 31.9016L8.10879 32.5797L5.59024 35.6471L8.78686 34.3879L9.01288 35.0337L4.65386 36.7127L4.42784 36.0346L6.94638 32.9672L3.68519 34.0973L3.45917 33.4515Z" fill="white"/>
<path d="M7.44897 29.238L2.81763 29.9258L2.92672 30.6604L7.55807 29.9726L7.44897 29.238Z" fill="white"/>
<path d="M2.65198 24.3782L2.68427 23.6033L7.3016 25.476L7.26931 26.2187L2.52283 27.6394V26.8645L6.36522 25.7989L2.65198 24.3782Z" fill="white"/>
<path d="M6.88186 13.9165C6.23608 13.9165 5.91319 14.304 5.49343 15.0466L4.94452 16.0153L9.04523 18.2432L9.40041 17.5975L7.68909 16.6611L7.78595 16.4673C8.07656 15.9507 8.17342 15.8538 8.91607 15.9184L10.2399 16.0476L10.6274 15.3695L9.07752 15.2403C8.75463 15.2081 8.5286 15.1758 8.33487 15.2403C8.27029 15.2726 8.20571 15.3049 8.10884 15.3695C8.14113 15.2726 8.17342 15.2081 8.17342 15.1112C8.17342 14.982 8.14113 14.8529 8.10884 14.7237C8.01198 14.4654 7.81824 14.2394 7.52764 14.0779C7.33391 13.9811 7.10788 13.9165 6.88186 13.9165ZM6.04235 15.3372C6.30066 14.8529 6.52668 14.6591 6.78499 14.6591C6.88186 14.6591 7.04331 14.6914 7.17246 14.756C7.33391 14.8529 7.49535 15.0143 7.52764 15.1758C7.55993 15.2404 7.55993 15.3049 7.55993 15.3695C7.55993 15.6601 7.39848 15.9184 7.23704 16.209L7.14017 16.3705L5.81632 15.6601L6.04235 15.3372Z" fill="white"/>
<path d="M12.5934 6.86598L12.0022 7.31543L14.8357 11.0427L15.4269 10.5932L12.5934 6.86598Z" fill="white"/>
<path d="M14.5666 5.48908L17.5695 3.93921L17.8601 4.48812L16.6977 5.10161L18.5381 8.6857L17.8924 9.04088L16.0196 5.45679L14.8572 6.07028L14.5666 5.48908Z" fill="white"/>
<path d="M22.0896 2.5185L22.8645 2.29248L22.251 5.42452L22.7354 7.20041L22.025 7.39415L21.5407 5.65054L19.3127 3.32573L20.0877 3.09971L21.6698 4.74645L22.0896 2.5185Z" fill="white"/>
<path d="M36.3295 8.87958L38.6866 4.87573L40.9145 6.19958L40.5916 6.7485L39.0095 5.81212L38.3637 6.90994L39.849 7.78175L39.5261 8.33066L38.0408 7.45885L36.9752 9.26704L36.3295 8.87958Z" fill="white"/>
<path d="M48.3083 19.3089L50.0196 17.2747L50.2779 18.0496L49.0186 19.5026L50.8914 19.9224L51.1497 20.6973L48.5666 20.0838L46.7584 22.2472L46.5001 21.4722L47.8562 19.8578L45.822 19.4057L45.5637 18.6308L48.3083 19.3089Z" fill="white"/>
<path d="M46.9848 23.8938L51.6344 23.5063L51.8604 26.0895L51.2147 26.1218L51.0532 24.2813L49.7617 24.4104L49.9231 26.1218L49.3096 26.1863L49.1482 24.4427L47.0494 24.6042L46.9848 23.8938Z" fill="white"/>
<path d="M49.0512 28.0269C48.5023 28.0269 48.018 28.1883 47.6305 28.4466C46.9202 28.9632 46.791 29.7059 46.791 30.1256C46.791 31.7078 48.2763 32.3213 49.3741 32.3213C49.9231 32.3213 50.4074 32.1599 50.7949 31.9015C51.5698 31.3203 51.6344 30.4808 51.6344 30.1902C51.6344 28.8664 50.3428 28.0269 49.0512 28.0269ZM49.4064 31.6109C48.5023 31.6109 47.4368 31.1266 47.4368 30.1902C47.4368 29.8673 47.5659 29.4153 47.9534 29.1247C48.244 28.9309 48.5992 28.8018 48.9867 28.8018C49.4387 28.8018 50.2782 28.931 50.7303 29.5444C50.8917 29.7382 50.9563 29.9965 50.9563 30.2548C50.9563 30.61 50.7949 31.0297 50.4397 31.3203C50.1814 31.5141 49.8262 31.6109 49.4064 31.6109Z" fill="white"/>
<path d="M46.3394 12.4958C45.8551 12.4958 45.3707 12.6573 44.8864 12.9479C43.9823 13.5291 43.6594 14.3363 43.6594 14.9175C43.6594 15.305 43.7563 15.6925 43.9823 16.0154C44.4666 16.7903 45.2416 16.984 45.7259 16.984C46.2103 16.984 46.7269 16.8226 47.2112 16.532C47.7924 16.1768 48.4382 15.4987 48.4382 14.5624C48.4382 14.1749 48.3413 13.7874 48.1153 13.4645C47.6633 12.851 47.0498 12.4958 46.3394 12.4958ZM45.5968 16.306C45.177 16.306 44.7895 16.1445 44.5312 15.7248C44.4021 15.531 44.3375 15.2727 44.3375 15.0467C44.3375 14.5301 44.6604 13.9812 45.2739 13.5937C45.6936 13.3354 46.0811 13.2062 46.4363 13.2062C46.8883 13.2062 47.2435 13.3999 47.5018 13.7874C47.631 14.0134 47.7278 14.2718 47.7278 14.4978C47.7278 15.0144 47.405 15.531 46.8237 15.8862C46.404 16.1768 45.9842 16.306 45.5968 16.306Z" fill="white"/>
<path d="M33.5848 2.87354C32.6161 2.87354 31.7766 3.51932 31.4215 4.68172C31.3569 4.94004 31.2923 5.19835 31.2923 5.45666C31.2923 5.9087 31.3569 6.29617 31.5506 6.65135C31.9704 7.42629 32.7776 7.71689 33.3588 7.71689C33.714 7.71689 34.0369 7.65231 34.3275 7.49087C35.1024 7.07111 35.6513 6.07015 35.6513 5.10148C35.6513 4.68172 35.5544 4.29425 35.393 3.97136C35.0378 3.261 34.3275 2.87354 33.5848 2.87354ZM33.3588 7.03882C33.0359 7.03882 32.5193 6.87738 32.261 6.36075C32.1318 6.13473 32.0672 5.81184 32.0672 5.52123C32.0672 4.68172 32.6161 3.51932 33.6494 3.51932C34.2306 3.51932 34.941 3.93908 34.941 5.00461C34.941 5.68268 34.4566 7.03882 33.3588 7.03882Z" fill="white"/>
<path d="M7.75332 19.8254L8.36681 19.9868L7.65645 22.5699L3.13599 21.3107L3.91092 18.7275L4.52441 18.889L3.9755 20.7617L5.20249 21.1169L5.68682 19.4056L6.30031 19.5671L5.81597 21.2784L7.23669 21.6658L7.75332 19.8254Z" fill="white"/>
<path d="M8.9161 10.074C9.56188 9.33137 10.2399 9.39595 10.2399 9.39595L10.3691 10.0094C10.3691 10.0094 9.85248 10.0094 9.46501 10.4615C9.30356 10.6552 9.2067 10.849 9.2067 11.0427C9.2067 11.2041 9.27128 11.3333 9.40043 11.4302C9.72332 11.7208 10.2722 11.3979 10.6274 11.2687C10.8857 11.1718 11.2732 11.0104 11.6607 11.0104C11.9513 11.0104 12.2419 11.075 12.5002 11.3333C12.8231 11.6239 12.9522 11.9468 12.9522 12.3342C12.9522 12.7217 12.7908 13.0769 12.5002 13.4321C11.919 14.1102 11.1117 14.1747 11.1117 14.1747L10.9503 13.5612C11.4346 13.4644 11.7898 13.2706 11.9836 13.0123C12.145 12.8186 12.2419 12.5926 12.2419 12.4311C12.2419 12.2697 12.1773 12.0759 12.0158 11.9468C11.8867 11.8499 11.7575 11.8176 11.5961 11.8176C11.3055 11.8176 10.9503 11.9791 10.6274 12.1082C10.0462 12.3343 9.46501 12.528 8.9161 12.0436C8.65778 11.7853 8.49634 11.4947 8.49634 11.1396C8.49634 10.7844 8.6255 10.3969 8.9161 10.074Z" fill="white"/>
<path d="M45.7581 34.065L47.534 34.8722L47.4371 35.0659C47.2111 35.6148 47.1142 35.7117 46.3716 35.7117H45.0477L44.7249 36.4221H46.2747C46.5976 36.4221 46.8236 36.4221 47.0174 36.3575C47.082 36.3252 47.1465 36.2929 47.2111 36.2283C47.2111 36.2606 47.1788 36.2929 47.1788 36.3575C47.1788 36.5189 47.2111 36.7127 47.2757 36.8418C47.5017 37.3262 48.0506 37.5845 48.4704 37.5845C49.213 37.5845 49.5036 37.1324 49.8588 36.3252C49.8588 36.2929 50.2786 35.3242 50.2786 35.3242L46.0487 33.4192L45.7581 34.065ZM48.5027 36.8418C48.2766 36.8418 47.9215 36.7127 47.7923 36.3575C47.76 36.2606 47.76 36.1638 47.76 36.0992C47.76 35.8409 47.8892 35.5826 48.0183 35.2919L48.0829 35.0982L49.4391 35.7117L49.2776 36.0669C49.0193 36.6804 48.8578 36.8418 48.5027 36.8418Z" fill="white"/>
<path d="M43.3039 38.4887C42.8195 39.1022 42.4644 39.6511 42.4644 40.3292C42.4644 40.9104 42.7227 41.5884 43.4007 42.1373C43.8528 42.4925 44.3694 42.6863 44.886 42.6863C45.5318 42.6863 46.0484 42.4925 46.8557 41.4916L47.5983 40.5552L43.9497 37.6492L43.3039 38.4887ZM44.9506 42.0082C44.5954 42.0082 44.2403 41.879 43.8528 41.5884C43.4976 41.2978 43.1101 40.8458 43.1101 40.2646C43.1101 39.8448 43.3362 39.4574 43.659 39.0376L43.9819 38.6501L46.6619 40.7812L46.4682 41.0395C45.9516 41.653 45.5964 42.0082 44.9506 42.0082Z" fill="white"/>
<path d="M53.9269 26.703C53.9269 11.9792 41.9154 0 27.1916 0C12.4355 0 0.456299 11.9792 0.456299 26.703C0.456299 35.5502 4.81532 43.7516 12.1126 48.7564C12.823 51.4364 15.277 53.4061 18.183 53.4061C18.9579 53.4061 19.7329 53.2446 20.4432 52.9863C21.4119 53.3092 22.4451 53.5675 23.4461 53.7935C23.1555 54.6008 22.7357 55.3757 22.3483 56.0538C22.3483 56.0538 22.3483 56.0538 22.3806 56.0538H22.3483L22.8972 56.6027C23.0263 56.5381 23.1878 56.4735 23.3815 56.4735C23.9304 56.4735 24.3825 56.9256 24.3825 57.4745C24.3825 58.0234 23.9304 58.4754 23.3815 58.4754C22.8972 58.4754 22.4774 58.1526 22.2514 57.8297C22.2514 57.8297 22.1222 58.2817 22.1222 58.8629C22.1222 60.768 24.221 62.9636 27.127 63.9C30.0331 62.9959 32.1318 60.8002 32.1318 58.8629C32.1318 58.2171 32.0027 57.8297 32.0027 57.8297C31.7767 58.088 31.4215 58.4754 30.8726 58.4754C30.3237 58.4754 29.8716 58.0234 29.8716 57.4745C29.8716 56.9256 30.3237 56.4735 30.8726 56.4735C31.0663 56.4735 31.2277 56.5381 31.3892 56.635L31.9381 56.086H31.9704C31.6798 55.3434 31.4538 54.6976 31.2923 54.0518C36.1034 53.4061 40.1718 51.3719 43.3684 47.9815C50.0845 42.8475 53.9269 35.0982 53.9269 26.703ZM18.183 52.6634C15.1478 52.6634 12.6616 50.1772 12.6616 47.142C12.6616 46.1733 12.9199 45.3015 13.3396 44.4943C13.6302 44.7526 13.9208 45.0109 14.2437 45.3015C13.9854 45.8827 13.824 46.4962 13.824 47.1743C13.824 48.821 14.6635 50.2094 16.2456 51.1458C17.1497 51.6947 18.183 52.1791 19.2808 52.5988C18.9256 52.6311 18.5704 52.6634 18.183 52.6634ZM27.1916 44.6234C26.0615 44.6234 24.9314 44.5266 23.8013 44.3005C22.7357 42.2018 20.5401 40.8456 18.183 40.8456C17.6018 40.8456 17.0529 40.9425 16.504 41.0716C11.9512 37.7136 9.23892 32.3213 9.23892 26.6707C9.23892 16.7903 17.2789 8.75033 27.1593 8.75033C37.0398 8.75033 45.0798 16.7903 45.0798 26.6707C45.112 36.5835 37.0721 44.6234 27.1916 44.6234ZM31.1632 44.9463C30.6143 45.7213 30.2914 46.7868 30.2268 47.8523C28.5155 47.4003 26.9979 46.8191 25.6418 46.2056C25.9001 45.7213 26.6427 45.3661 27.1916 45.3661C28.5478 45.3661 29.8716 45.2046 31.1632 44.9463ZM25.4803 45.3015C25.2543 45.463 25.0605 45.689 24.9314 45.8827C24.2533 45.5598 23.4138 45.1401 22.8326 44.8172C23.6398 45.0109 24.6731 45.2046 25.4803 45.3015ZM18.183 41.6206C20.0235 41.6206 21.7671 42.5569 22.768 44.0745C21.8962 43.8485 21.0244 43.5579 20.1526 43.2027H20.1203C19.5391 42.9121 18.8933 42.783 18.2153 42.783C16.73 42.783 15.4384 43.4933 14.6312 44.5912C14.3083 44.3974 13.9531 44.2037 13.6302 44.0099C14.6635 42.5569 16.3102 41.6206 18.183 41.6206ZM30.8726 55.6986C29.8716 55.6986 29.0644 56.4089 29.0644 57.4745C29.0644 58.5077 29.8716 59.2504 30.8726 59.2504C31.034 59.2504 31.1632 59.2181 31.2923 59.1858C31.0986 60.6711 29.355 62.3178 27.127 63.0605C24.9314 62.3178 23.1878 60.6388 22.9618 59.1858C23.0909 59.2181 23.2524 59.2504 23.3815 59.2504C24.4471 59.2504 25.1897 58.5077 25.1897 57.4745C25.1897 56.5058 24.4148 55.7309 23.4461 55.6986C23.7367 55.1497 24.0273 54.5685 24.2533 53.9227C25.4803 54.1487 26.675 54.2456 27.8051 54.2456C28.7415 54.2456 29.6133 54.181 30.4851 54.1164C30.6143 54.633 30.7757 55.1497 30.9694 55.6986C30.9372 55.6986 30.9049 55.6986 30.8726 55.6986ZM27.8051 53.5029C24.221 53.5029 19.7329 52.2759 16.6654 50.4678C15.729 49.9188 14.6312 48.8856 14.6312 47.142C14.6312 46.6577 14.7281 46.2056 14.8895 45.8181C16.0519 46.7545 17.2143 47.6586 17.957 48.0784C18.1184 48.1752 18.2153 48.2075 18.4413 48.2075C18.9256 48.2075 19.3131 47.8201 19.3131 47.3357C19.3131 46.9805 19.1194 46.6577 18.7965 46.5285C18.1507 46.2379 16.8268 45.689 15.4061 44.9463C16.0842 44.0745 17.1174 43.4933 18.2798 43.4933C18.8288 43.4933 19.3454 43.6225 19.8297 43.8485L20.7984 44.4297C23.9304 46.3348 31.9704 51.2427 41.6571 48.5304C37.9439 51.8562 33.4234 53.5029 27.8051 53.5029ZM42.8518 47.368C38.4928 48.9179 34.4567 48.7887 31.0017 48.0138C31.1309 46.4639 31.7444 44.8172 32.7453 44.4943C40.3656 42.1372 45.9193 35.0336 45.9193 26.6707C45.9193 16.3705 37.5241 8.00768 27.2239 8.00768C16.8914 8.00768 8.52856 16.3705 8.52856 26.6707C8.52856 32.3859 11.2085 37.8428 15.6967 41.3623C14.6312 41.8466 13.7271 42.5892 13.049 43.5256C12.6938 43.2996 12.371 43.0413 12.0804 42.8153L11.9189 42.9767C12.1126 43.235 12.4355 43.5579 12.823 43.9131C12.2741 44.8495 11.9512 45.9473 11.9512 47.1097C11.9512 47.3034 11.9512 47.4649 11.9835 47.6586C5.26737 42.783 1.29581 35.0013 1.29581 26.703C1.29581 12.399 12.9522 0.742644 27.2562 0.742644C41.5602 0.742644 53.2166 12.3667 53.2166 26.703C53.1197 34.9044 49.3742 42.4278 42.8518 47.368Z" fill="white"/>
<path d="M87.3784 41.9434C87.3784 49.0793 81.8569 54.2778 74.9794 54.2778C67.9726 54.2778 62.5804 49.047 62.5804 42.2017C62.5804 35.0659 68.1018 29.8673 74.9794 29.8673C81.9861 29.835 87.3784 35.0982 87.3784 41.9434ZM83.4391 42.0726C83.4391 35.5825 80.2748 31.0297 74.9794 31.0297C69.1996 31.0297 66.5196 36.4866 66.5196 42.0726C66.5196 48.5627 69.684 53.0831 74.9794 53.0831C80.7591 53.0831 83.4391 47.6263 83.4391 42.0726Z" fill="white"/>
<path d="M163.096 41.9434C163.096 49.0793 157.575 54.2778 150.697 54.2778C143.69 54.2778 138.298 49.047 138.298 42.2017C138.298 35.0659 143.82 29.8673 150.697 29.8673C157.736 29.835 163.096 35.0982 163.096 41.9434ZM159.157 42.0726C159.157 35.5825 155.993 31.0297 150.697 31.0297C144.917 31.0297 142.237 36.4866 142.237 42.0726C142.237 48.5627 145.402 53.0831 150.697 53.0831C156.477 53.0831 159.157 47.6263 159.157 42.0726Z" fill="white"/>
<path d="M172.686 42.1695H175.625C180.081 42.1695 181.082 39.3604 181.082 36.6481C181.082 34.6139 180.145 32.7089 178.046 31.8048C176.949 31.3527 175.883 31.3527 174.43 31.3527H172.654V42.1695H172.686ZM178.143 45.9796C176.755 44.01 176.238 43.2997 174.527 43.2997H172.686V51.3073C172.686 51.9531 172.945 52.276 173.687 52.4052L176.367 52.9864V53.8582H165.809V52.9864L168.231 52.4052C168.941 52.2114 169.199 51.9531 169.199 51.3073V32.8057C169.199 32.1599 168.941 31.9016 168.231 31.6756L165.809 31.0944V30.2549H176.109C178.272 30.2549 179.79 30.4486 181.017 30.9007C183.568 31.9016 185.021 34.3233 185.021 36.6158C185.021 39.5218 182.857 41.9435 179.241 42.783V42.9122C179.951 43.2351 180.371 43.6871 182.922 47.0452L186.151 51.3073C186.603 51.9531 187.216 52.3406 187.927 52.502L190.284 53.0187V53.8905H184.633C183.988 53.8905 183.632 53.6967 183.051 52.8895L178.143 45.9796Z" fill="white"/>
<path d="M131.873 38.3271H132.841V46.2057H131.873L131.291 43.8486C131.098 43.0091 130.581 42.6539 129.774 42.6539H124.059V51.3073C124.059 51.9531 124.317 52.276 125.06 52.4052L127.74 52.9864V53.8582H117.181V52.9864L119.603 52.4052C120.313 52.2114 120.604 51.9531 120.604 51.3073V32.8057C120.604 32.1599 120.345 31.9016 119.603 31.7079L117.181 31.1267V30.2549H135.037V36.1638H134.036L132.938 32.612C132.68 31.7079 132.292 31.3527 131.485 31.3527H124.059V41.5238H129.774C130.549 41.5238 131.033 41.2009 131.291 40.3291L131.873 38.3271Z" fill="white"/>
<path d="M192.156 53.8582V52.9864L194.578 52.4052C195.288 52.2114 195.579 51.9531 195.579 51.3073V32.8057C195.579 32.1599 195.321 31.9016 194.578 31.7079L192.156 31.1267V30.2549H203.264C206.267 30.2549 208.462 30.6424 210.206 31.4496C214.662 33.4838 216.696 37.8751 216.696 42.2018C216.696 46.3994 215.114 50.3387 211.11 52.4375C209.269 53.4384 206.719 53.8905 203.361 53.8905H192.156V53.8582ZM199.066 31.3527V51.6948C199.066 52.5666 199.26 52.7603 200.132 52.7603H203.005C205.75 52.7603 207.784 52.3729 209.237 51.3073C211.659 49.5314 212.789 46.3348 212.789 42.2664C212.789 38.2626 211.659 34.3233 208.398 32.4183C207.009 31.611 205.233 31.3527 202.489 31.3527H199.066Z" fill="white"/>
<path d="M96.6453 53.0185V53.8903H88.3147V53.0185L90.4135 52.5018C91.1884 52.3081 91.7373 52.0498 92.254 51.4363L99.4867 42.3954L92.254 32.8055C91.8019 32.1598 91.2207 31.8369 90.4781 31.6108L88.5084 31.0942V30.2224H98.8732V31.0942L96.6453 31.5463C95.8703 31.6754 96.0641 31.9983 96.4515 32.5472L101.779 40.1674H101.908L107.365 32.5472C107.753 32.0306 107.882 31.8369 107.171 31.6431L105.073 31.1265V30.2547H113.403V31.1265L111.304 31.6431C110.53 31.8369 109.981 32.0952 109.464 32.6764L102.651 41.2653L110.207 51.3071C110.659 51.9529 111.272 52.2758 111.983 52.5018L113.952 53.0185V53.8903H103.587V53.0185L105.815 52.5664C106.59 52.4373 106.461 52.179 106.074 51.63L100.294 43.4932H100.165L94.3205 51.5655C93.933 52.0821 93.8038 52.2758 94.5142 52.4696L96.6453 53.0185Z" fill="white"/>
<path d="M71.7832 19.1151C71.1374 19.7609 70.1364 20.213 68.7803 20.213C67.5856 20.213 66.4878 19.8255 65.7451 19.0829C64.7119 18.0496 64.7764 16.758 64.7764 15.3696V8.81494H66.1003V15.8862C66.1003 16.7903 66.068 17.6621 66.7784 18.3402C67.2627 18.8245 68.0053 19.0829 68.8449 19.0829C69.6844 19.0829 70.3301 18.7923 70.7499 18.3725C71.5248 17.5976 71.4603 16.758 71.4603 14.7561V8.84723H72.7841V14.4332C72.7841 16.4997 72.8487 18.0496 71.7832 19.1151Z" fill="white"/>
<path d="M83.6651 19.9869L78.2729 10.8169L78.3052 19.9869H77.0782V8.81494H78.4666L83.8589 18.0496L83.8266 8.81494H85.0536V19.9869H83.6651Z" fill="white"/>
<path d="M91.0916 8.81494H89.7355V20.0192H91.0916V8.81494Z" fill="white"/>
<path d="M99.4541 19.9869H97.9042L94.0295 8.81494H95.4503L98.7115 18.6954L102.07 8.81494H103.361L99.4541 19.9869Z" fill="white"/>
<path d="M106.429 19.9869V8.81494H112.499V9.91277H107.753V13.626H112.209V14.7238H107.753V18.8568H112.628V19.9869H106.429Z" fill="white"/>
<path d="M121.152 10.494C120.507 9.84825 119.667 9.88054 118.763 9.88054H117.536V14.0781H117.988C119.118 14.0781 120.345 14.1427 121.088 13.3678C121.443 13.0126 121.669 12.4637 121.669 11.9147C121.669 11.269 121.411 10.7523 121.152 10.494ZM122.379 19.987L121.088 17.081C120.281 15.3051 119.925 15.1114 118.311 15.1114H117.536V19.987H116.212V8.78271H118.634C120.119 8.78271 121.249 8.78271 122.121 9.65452C122.67 10.2034 122.993 10.9461 122.993 11.8825C122.993 12.6574 122.767 13.3032 122.282 13.8198C121.895 14.2396 121.217 14.627 120.474 14.6916C120.862 14.7239 121.185 14.9176 121.411 15.1437C121.701 15.4343 121.927 15.9186 122.25 16.629L123.768 19.987H122.379Z" fill="white"/>
<path d="M138.201 8.81494H136.845V20.0192H138.201V8.81494Z" fill="white"/>
<path d="M145.886 9.91277V19.9869H144.53V9.91277H141.204V8.81494H149.18V9.91277H145.886Z" fill="white"/>
<path d="M155.637 15.5633V19.9869H154.314V15.5633L150.762 8.81494H152.279L155.056 14.0458L157.736 8.81494H159.189L155.637 15.5633Z" fill="white"/>
<path d="M171.749 9.75121C169.554 9.75121 168.133 11.5917 168.133 14.4008C168.133 17.1777 169.715 19.0827 171.814 19.0827C174.139 19.0827 175.462 17.0808 175.462 14.304C175.462 11.5594 173.913 9.75121 171.749 9.75121ZM171.749 20.2129C168.843 20.2129 166.744 17.8235 166.744 14.4654C166.744 11.0105 168.843 8.62109 171.878 8.62109C174.817 8.62109 176.883 11.0105 176.883 14.3685C176.851 17.8235 174.752 20.2129 171.749 20.2129Z" fill="white"/>
<path d="M181.856 9.91277V13.626H186.183V14.6915H181.856V19.9869H180.532V8.81494H186.474V9.91277H181.856Z" fill="white"/>
<path d="M126.48 11.5272C126.48 9.81585 127.869 8.58887 129.871 8.58887C131.905 8.58887 132.906 9.65441 133.003 9.75127L132.357 10.5585C132.099 10.3648 131.195 9.71898 129.968 9.71898C128.547 9.71898 127.74 10.4616 127.74 11.4626C127.74 11.9469 127.933 12.3021 128.256 12.5927C128.644 12.9479 129.193 13.2062 129.806 13.4645C130.549 13.8197 131.582 14.2072 132.26 14.9175C132.744 15.4019 133.1 16.0476 133.1 16.9194C133.1 18.7922 131.808 20.2129 129.483 20.2129C127.514 20.2129 126.254 19.1151 126.125 19.0182L126.739 18.1141C127.062 18.3402 128.289 19.0828 129.451 19.0828C131.13 19.0828 131.776 18.1464 131.776 17.0486C131.776 16.532 131.55 16.1122 131.195 15.7893C130.678 15.2727 129.871 14.9498 129.128 14.5946C128.385 14.2394 127.643 13.8843 127.126 13.3354C126.836 13.0125 126.48 12.4313 126.48 11.5272Z" fill="white"/>
</svg>
