<svg id="Layer_1" data-name="Layer 1" xmlns="http://www.w3.org/2000/svg" viewBox="0 0 15.34 15.34"><defs><style>.cls-1{fill:#fff;}</style></defs><title>icon</title><path class="cls-1" d="M7.64-.35A8,8,0,0,0-.19,6.18a8,8,0,0,0,4.91,8.94,7.39,7.39,0,0,1,0-2.3l.94-4a2.78,2.78,0,0,1-.21-1.14c0-1.11.64-1.95,1.45-1.95a1,1,0,0,1,.42.09.94.94,0,0,1,.35.25,1.28,1.28,0,0,1,.21.38,1,1,0,0,1,0,.43,6.43,6.43,0,0,1-.37,1.64c-.11.34-.21.69-.29,1a1.09,1.09,0,0,0,0,.54,1.23,1.23,0,0,0,.23.49,1.31,1.31,0,0,0,.44.33,1.1,1.1,0,0,0,.54.08C9.86,11,11,9.48,11,7.31A3.27,3.27,0,0,0,10.73,6,3.08,3.08,0,0,0,10,4.94a3.18,3.18,0,0,0-1.1-.7,3.14,3.14,0,0,0-1.29-.19,3.42,3.42,0,0,0-1.38.22,3.43,3.43,0,0,0-2,1.89A3.42,3.42,0,0,0,4,7.53a3.1,3.1,0,0,0,.57,1.83.24.24,0,0,1,.06.11.24.24,0,0,1,0,.12c-.07.25-.2.8-.23.91s-.12.18-.27.11A3.6,3.6,0,0,1,2.5,7.5C2.5,5,4.33,2.64,7.8,2.64a4.72,4.72,0,0,1,4.94,4.64c0,2.76-1.72,5-4.17,5a2.18,2.18,0,0,1-1-.22,2.14,2.14,0,0,1-.8-.69l-.5,1.9a9.07,9.07,0,0,1-1,2.11,8.13,8.13,0,0,0,2.4.33,8,8,0,0,0,0-16Z"/></svg>