<svg width="17" height="18" viewBox="0 0 17 18" fill="none" xmlns="http://www.w3.org/2000/svg">
<path d="M8.94535 0.979004C7.08581 0.991668 5.28844 1.65007 3.86072 2.84158C2.43301 4.03308 1.46366 5.68365 1.11851 7.51093C0.773357 9.3382 1.07385 11.2286 1.96858 12.8588C2.86331 14.489 4.29667 15.7577 6.02348 16.4478C5.90742 15.6883 5.90742 14.9156 6.02348 14.1561L6.96879 10.1457C6.81919 9.78246 6.74511 9.3926 6.75108 8.99984C6.75108 7.88838 7.39848 7.05192 8.20056 7.05192C8.34586 7.04974 8.48992 7.07898 8.62287 7.13766C8.75582 7.19634 8.87451 7.28306 8.97082 7.39188C9.06713 7.5007 9.13878 7.62906 9.18086 7.76815C9.22294 7.90725 9.23446 8.05379 9.21462 8.19775C9.21462 8.64097 9.03366 9.22705 8.84366 9.84241C8.73894 10.1816 8.63147 10.5296 8.55004 10.8675C8.50072 11.0449 8.49485 11.2315 8.53294 11.4116C8.57103 11.5918 8.65196 11.76 8.76887 11.9022C8.88578 12.0444 9.03523 12.1564 9.20457 12.2286C9.37391 12.3008 9.55816 12.3311 9.74171 12.317C11.1625 12.317 12.2625 10.8103 12.2625 8.64463C12.2768 8.20456 12.1992 7.76635 12.0347 7.35795C11.8702 6.94954 11.6223 6.57992 11.307 6.27265C10.9916 5.96538 10.6157 5.72721 10.2031 5.57335C9.7906 5.41948 9.35052 5.35329 8.91098 5.379C8.4417 5.35885 7.97321 5.43412 7.53387 5.60028C7.09453 5.76643 6.69347 6.02 6.35497 6.34565C6.01647 6.67129 5.74756 7.06224 5.56454 7.49482C5.38151 7.92741 5.28816 8.39263 5.29014 8.86234C5.28377 9.51669 5.48429 10.1563 5.86306 10.6899C5.8906 10.7206 5.91022 10.7574 5.92021 10.7974C5.9302 10.8373 5.93025 10.8791 5.92035 10.9191C5.8573 11.1713 5.71982 11.7212 5.69691 11.83C5.674 11.9389 5.5766 12.0076 5.42764 11.9389C4.42504 11.4691 3.80056 10.0082 3.80056 8.82796C3.80056 6.3014 5.63962 3.97536 9.10004 3.97536C11.8787 3.97536 14.0443 5.95765 14.0443 8.61025C14.0443 11.3717 12.3256 13.5946 9.87921 13.5946C9.52057 13.6071 9.1645 13.5298 8.84333 13.3697C8.52216 13.2096 8.24608 12.9718 8.04014 12.678L7.54171 14.5858C7.30277 15.3272 6.96762 16.0341 6.54483 16.6884C7.32387 16.9186 8.13306 17.0306 8.94535 17.0207C11.0726 17.0207 13.1127 16.1756 14.6169 14.6714C16.1211 13.1672 16.9662 11.1271 16.9662 8.99984C16.9662 6.87258 16.1211 4.83245 14.6169 3.32825C13.1127 1.82405 11.0726 0.979004 8.94535 0.979004Z" fill="white"/>
</svg>
