<svg width="18" height="14" viewBox="0 0 18 14" fill="none" xmlns="http://www.w3.org/2000/svg">
<path d="M17.1748 2.18953C17.2231 2.12222 17.1518 2.03531 17.0745 2.06525C16.5256 2.27803 15.9519 2.42158 15.3667 2.49233C16.0183 2.10306 16.5211 1.51049 16.7999 0.808941C16.8283 0.737474 16.7503 0.673652 16.683 0.71083C16.0774 1.04528 15.4242 1.28611 14.7458 1.42481C14.7174 1.43061 14.6881 1.42094 14.6682 1.39991C14.159 0.862676 13.4888 0.50498 12.7582 0.381373C12.0122 0.255168 11.2455 0.380128 10.5782 0.736654C9.91089 1.09318 9.3808 1.66111 9.07106 2.35136C8.77655 3.00766 8.69708 3.73925 8.84234 4.44186C8.85361 4.49637 8.81094 4.54784 8.75538 4.54439C7.43533 4.4624 6.14558 4.1113 4.96557 3.51221C3.78856 2.91466 2.74628 2.08335 1.90222 1.06958C1.86476 1.02458 1.79377 1.03041 1.76647 1.0822C1.50383 1.58059 1.36632 2.13608 1.36669 2.70066C1.36562 3.26265 1.50354 3.81618 1.76815 4.31197C2.03277 4.80776 2.41587 5.23042 2.88336 5.54233C2.38759 5.52884 1.90148 5.40628 1.4594 5.18406C1.40242 5.15542 1.33408 5.1962 1.33705 5.25989C1.37152 6.00092 1.64357 6.74486 2.11445 7.31563C2.61555 7.92303 3.31107 8.3387 4.08336 8.49233C3.78607 8.5828 3.47742 8.6305 3.16669 8.634C2.99757 8.63202 2.82879 8.61954 2.6613 8.59664C2.5992 8.58815 2.5485 8.64714 2.57024 8.70593C2.80058 9.32884 3.20752 9.87237 3.74259 10.2691C4.31463 10.6933 5.00467 10.9286 5.71669 10.9423C4.51436 11.8884 3.02993 12.4047 1.50002 12.409C1.34282 12.4095 1.18569 12.4044 1.02892 12.3937C0.940584 12.3877 0.899955 12.5054 0.976102 12.5506C2.46674 13.4352 4.17051 13.9028 5.90836 13.9007C7.19143 13.914 8.4643 13.6715 9.65262 13.1874C10.8409 12.7033 11.9209 11.9872 12.8294 11.0811C13.7378 10.1749 14.4567 9.09682 14.9438 7.90975C15.431 6.72268 15.6767 5.45044 15.6667 4.16733V3.76747C15.6667 3.74116 15.6791 3.71642 15.7001 3.70057C16.2654 3.27378 16.7624 2.76425 17.1748 2.18953Z" fill="white"/>
</svg>
