<svg id="Layer_1" data-name="Layer 1" xmlns="http://www.w3.org/2000/svg" viewBox="0 0 15.34 15.34"><defs><style>.cls-1{fill:#fff;}</style></defs><title>icon</title><path class="cls-1" d="M15.78,2.74a.08.08,0,0,0-.1-.12A7.13,7.13,0,0,1,14,3,3.4,3.4,0,0,0,15.4,1.36a.08.08,0,0,0-.11-.1A6.78,6.78,0,0,1,13.35,2a.11.11,0,0,1-.08,0,3.4,3.4,0,0,0-4.09-.66A3.4,3.4,0,0,0,7.68,2.9,3.35,3.35,0,0,0,7.45,5a.09.09,0,0,1-.09.11,9.83,9.83,0,0,1-3.79-1A9.55,9.55,0,0,1,.51,1.62a.09.09,0,0,0-.14,0A3.53,3.53,0,0,0,0,3.25a3.46,3.46,0,0,0,.4,1.61A3.4,3.4,0,0,0,1.49,6.09,3.26,3.26,0,0,1,.06,5.73a.09.09,0,0,0-.12.08A3.58,3.58,0,0,0,.72,7.87,3.43,3.43,0,0,0,2.69,9a3.21,3.21,0,0,1-.92.14,4.07,4.07,0,0,1-.5,0,.09.09,0,0,0-.1.11,3.5,3.5,0,0,0,1.18,1.56,3.41,3.41,0,0,0,2,.67A6.81,6.81,0,0,1,.1,13a3.77,3.77,0,0,1-.47,0c-.08,0-.13.12,0,.16a9.62,9.62,0,0,0,4.93,1.35,9.8,9.8,0,0,0,3.75-.71,9.57,9.57,0,0,0,3.17-2.11,9.61,9.61,0,0,0,2.84-6.91v-.4a.09.09,0,0,1,0-.07A7.06,7.06,0,0,0,15.78,2.74Z"/></svg>