<svg width="211" height="59" viewBox="0 0 211 59" fill="none" xmlns="http://www.w3.org/2000/svg">
<path fill-rule="evenodd" clip-rule="evenodd" d="M193.776 50.418H199.752L210.091 24.2642H204.176L199.902 37.2902L195.4 24.2642H188.798L196.659 43.1557L193.776 50.418ZM164.115 30.4729V43.8796H158.086V24.265H162.323L163.582 25.978C165.223 24.6041 166.977 23.8072 169 23.8072C171.709 23.8072 173.769 24.6077 175.029 26.5887C176.86 24.9118 178.807 23.8072 181.288 23.8072C185.942 23.8072 188.652 26.2073 188.652 32.7204V43.8796H182.623V33.4059C182.623 30.397 181.401 29.5206 179.455 29.5206C178.31 29.5206 177.358 29.825 176.288 30.5113C176.365 31.1968 176.403 31.9203 176.403 32.7168V43.8763H170.374V33.4059C170.374 30.397 169.152 29.5206 167.168 29.5206C166.061 29.5206 165.146 29.7871 164.115 30.4729ZM143.088 32.1488H150.834C150.414 29.5972 149.041 28.3777 146.98 28.3777C145.224 28.3777 143.546 29.4067 143.088 32.1488ZM147.4 44.2603C141.6 44.2603 136.944 41.404 136.944 33.8618C136.944 26.815 141.447 23.7689 146.637 23.7689C152.895 23.7689 155.68 28.1485 155.68 35.0423H143.049C143.469 38.4316 145.569 39.4226 148.355 39.4226C151.048 39.4226 153.156 38.7592 154.787 37.664L153.968 42.4373C152.412 43.6377 150.543 44.2596 147.4 44.2596L147.4 44.2603ZM124.951 39.1949C126.327 39.1949 127.355 38.9656 128.423 38.1662V29.6348C127.469 29.0629 126.516 28.7971 125.142 28.7971C122.204 28.7971 120.525 30.7774 120.525 34.0904C120.525 37.3285 122.242 39.1956 124.951 39.1956L124.951 39.1949ZM129.605 42.4319C128.041 43.6128 126.249 44.3362 123.691 44.3362C118.311 44.3362 114.419 41.0229 114.419 34.2046C114.419 27.4254 118.884 23.7689 124.607 23.7689C125.943 23.7689 127.241 23.9598 128.423 24.4197V16.0908H134.452V43.8789H130.636L129.605 42.4319ZM88.8735 32.2623V17.7251H95.1315V32.1484C95.1315 37.3281 97.4588 38.3944 100.664 38.3944C104.137 38.3944 105.93 36.8707 105.93 32.1484V17.7251H112.226V32.2619C112.226 40.8324 108.487 44.4122 100.36 44.4122C92.8034 44.4122 88.8732 41.3273 88.8732 32.2619L88.8735 32.2623Z" fill="white"/>
<path fill-rule="evenodd" clip-rule="evenodd" d="M72.6255 33.624C72.3773 33.423 72.0827 33.286 71.7679 33.2253C69.9165 35.0507 67.6574 36.9737 65.6515 38.2663C64.726 38.8747 63.5615 39.179 62.7906 39.179C61.0163 39.179 60.2453 37.5054 60.0137 34.8414C59.7053 31.2679 59.4967 26.9877 59.4967 20.3725C59.4967 13.5877 57.9402 8.97531 53.7942 8.61384C53.6188 8.59829 53.4416 8.58781 53.2571 8.58781C50.7115 8.58781 49.4773 9.88007 47.8579 13.1496C46.4695 15.9625 44.3137 20.0681 40.2997 27.8234C36.8286 34.515 32.9727 40.446 29.6554 44.5516C28.7318 45.6895 28.0017 46.471 27.3156 46.9163C26.857 47.2149 26.4167 47.3645 25.9538 47.3645C24.6446 47.3645 23.6892 46.2714 23.3698 43.7267C23.2938 43.122 23.254 42.4352 23.254 41.662C23.254 36.416 25.2636 27.9001 28.7299 15.3542C31.2755 6.23392 30.1958 0 24.6417 0H24.5796L24.5759 0.00072294C23.3183 0.0151817 22.2759 0.465935 21.2711 1.2478C20.2824 2.01773 19.2926 3.68194 18.3689 5.91908C17.3276 8.43852 10.9948 21.005 0.916201 27.4782C0.797453 29.9399 2.20599 32.3997 5.0596 32.6664C7.65379 32.9101 9.50261 31.8267 11.8776 30.2482C11.5591 31.653 11.2454 33.0589 10.9364 34.4658L10.606 35.9623C10.2927 37.3723 10.0531 38.7973 9.88808 40.2316C8.4631 52.7989 14.3545 58.9999 21.2495 58.9999C22.4019 58.9999 23.5441 58.8643 24.6775 58.5791C32.2745 56.6735 39.5886 48.0524 48.2445 28.207C48.1129 30.3657 48.0994 32.382 48.194 34.2529C48.764 45.6269 53.3115 49.0396 59.74 49.0396C64.5996 49.0396 69.1496 46.531 71.4632 43.4133C73.1604 41.2083 73.8546 38.7749 73.8546 36.8707C73.8546 35.3952 73.3814 34.2175 72.6291 33.6196" fill="white"/>
</svg>
