<svg width="20" height="20" viewBox="0 0 20 20" fill="none" xmlns="http://www.w3.org/2000/svg">
<path d="M9.41671 16.0833C9.26393 15.9306 9.18393 15.7361 9.17671 15.5C9.16949 15.2639 9.24254 15.0694 9.39588 14.9167L13.4792 10.8333H4.16671C3.9306 10.8333 3.73254 10.7533 3.57254 10.5933C3.41254 10.4333 3.33282 10.2356 3.33338 10C3.33338 9.76389 3.41338 9.56583 3.57338 9.40583C3.73338 9.24583 3.93115 9.16611 4.16671 9.16667H13.4792L9.39588 5.08333C9.2431 4.93056 9.17004 4.73611 9.17671 4.5C9.18338 4.26389 9.26338 4.06944 9.41671 3.91667C9.56949 3.76389 9.76393 3.6875 10 3.6875C10.2362 3.6875 10.4306 3.76389 10.5834 3.91667L16.0834 9.41667C16.1667 9.48611 16.2259 9.57306 16.2609 9.6775C16.2959 9.78194 16.3131 9.88944 16.3125 10C16.3125 10.1111 16.2953 10.2153 16.2609 10.3125C16.2264 10.4097 16.1673 10.5 16.0834 10.5833L10.5834 16.0833C10.4306 16.2361 10.2362 16.3125 10 16.3125C9.76393 16.3125 9.56949 16.2361 9.41671 16.0833Z" fill="white"/>
</svg>
